<?xml version="1.0" encoding="UTF-8"?>
<!DOCTYPE svg PUBLIC "-//W3C//DTD SVG 1.1//EN" "http://www.w3.org/Graphics/SVG/1.1/DTD/svg11.dtd">
<svg xmlns="http://www.w3.org/2000/svg" version="1.1" width="775px" height="850px" style="shape-rendering:geometricPrecision; text-rendering:geometricPrecision; image-rendering:optimizeQuality; fill-rule:evenodd; clip-rule:evenodd" xmlns:xlink="http://www.w3.org/1999/xlink">
<g><path style="opacity:1" fill="#fefefe" d="M -0.5,-0.5 C 257.833,-0.5 516.167,-0.5 774.5,-0.5C 774.5,282.833 774.5,566.167 774.5,849.5C 516.167,849.5 257.833,849.5 -0.5,849.5C -0.5,566.167 -0.5,282.833 -0.5,-0.5 Z"/></g>
<g><path style="opacity:1" fill="#9f9c9a" d="M 406.5,63.5 C 399.813,62.259 393.146,62.259 386.5,63.5C 386.611,62.8826 386.944,62.3826 387.5,62C 390.167,61.8333 392.833,61.6667 395.5,61.5C 399.469,61.2942 403.135,61.9608 406.5,63.5 Z"/></g>
<g><path style="opacity:1" fill="#82807b" d="M 541.5,90.5 C 537.131,90.4672 532.798,90.8005 528.5,91.5C 530.634,89.9666 533.134,89.2999 536,89.5C 538.033,89.5056 539.866,89.8389 541.5,90.5 Z"/></g>
<g><path style="opacity:1" fill="#848380" d="M 278.5,100.5 C 274.885,100.155 271.552,100.822 268.5,102.5C 268.953,101.542 269.619,100.708 270.5,100C 273.367,99.1993 276.034,99.3659 278.5,100.5 Z"/></g>
<g><path style="opacity:1" fill="#4f4540" d="M 710.5,577.5 C 703.436,575.434 699.103,570.767 697.5,563.5C 697.832,528.996 697.498,494.663 696.5,460.5C 696.5,445.833 696.5,431.167 696.5,416.5C 697.666,333.668 697.832,250.668 697,167.5C 695.961,168.244 695.461,169.244 695.5,170.5C 695.737,171.791 695.404,172.791 694.5,173.5C 694.368,169.781 695.035,166.281 696.5,163C 696.304,161.122 695.971,159.288 695.5,157.5C 696.117,157.611 696.617,157.944 697,158.5C 697.5,143.837 697.667,129.17 697.5,114.5C 697.5,113.833 697.5,113.167 697.5,112.5C 699.128,107.875 702.128,104.541 706.5,102.5C 712.681,100.748 719.014,100.081 725.5,100.5C 725.5,259.5 725.5,418.5 725.5,577.5C 720.5,577.5 715.5,577.5 710.5,577.5 Z"/></g>
<g><path style="opacity:1" fill="#dbd9d4" d="M 697.5,112.5 C 697.5,113.167 697.5,113.833 697.5,114.5C 696.833,127.833 696.167,141.167 695.5,154.5C 695.336,150.335 694.003,146.668 691.5,143.5C 693.124,143.64 694.29,142.973 695,141.5C 695.333,132.167 695.667,122.833 696,113.5C 696.383,112.944 696.883,112.611 697.5,112.5 Z"/></g>
<g><path style="opacity:1" fill="#746b66" d="M 697.5,114.5 C 697.667,129.17 697.5,143.837 697,158.5C 696.617,157.944 696.117,157.611 695.5,157.5C 695.5,156.5 695.5,155.5 695.5,154.5C 696.167,141.167 696.833,127.833 697.5,114.5 Z"/></g>
<g><path style="opacity:1" fill="#fbfbfa" d="M 676.5,153.5 C 677.2,157.798 677.533,162.131 677.5,166.5C 674.865,174.118 669.532,176.951 661.5,175C 657.723,170.765 654.723,166.099 652.5,161C 647.537,160.267 644.37,162.433 643,167.5C 642.568,188.396 652.734,197.229 673.5,194C 682.406,191.579 689.073,186.413 693.5,178.5C 694.268,177.737 694.768,176.737 695,175.5C 695.5,255.166 695.667,334.833 695.5,414.5C 694.5,414.5 693.5,414.5 692.5,414.5C 682.328,411.007 674.828,414.007 670,423.5C 669.231,426.099 669.398,428.599 670.5,431C 674.964,429.731 679.63,429.398 684.5,430C 689.297,434.269 689.797,439.103 686,444.5C 674.818,451.225 665.818,448.892 659,437.5C 656.787,432.696 655.287,427.696 654.5,422.5C 654.612,415.82 654.946,409.153 655.5,402.5C 657.466,393.564 660.299,384.897 664,376.5C 673.63,358.599 680.963,339.933 686,320.5C 688.615,306.134 687.281,292.134 682,278.5C 674.734,262.891 664.734,249.224 652,237.5C 650.248,234.328 648.248,231.328 646,228.5C 644.684,225.312 644.184,221.978 644.5,218.5C 642.801,218.66 641.134,218.494 639.5,218C 638.707,214.589 638.207,211.089 638,207.5C 636.301,206.594 634.467,206.261 632.5,206.5C 632.662,204.473 632.495,202.473 632,200.5C 630.989,199.663 629.822,199.33 628.5,199.5C 628.567,198.041 628.234,196.708 627.5,195.5C 627.245,193.033 626.245,191.033 624.5,189.5C 624.483,187.435 624.15,185.435 623.5,183.5C 622.203,174.495 622.203,165.495 623.5,156.5C 631.829,137.997 645.495,132.497 664.5,140C 669.765,143.428 673.765,147.928 676.5,153.5 Z"/></g>
<g><path style="opacity:1" fill="#68625d" d="M 321.5,138.5 C 322.833,138.5 324.167,138.5 325.5,138.5C 325.5,139.5 325.5,140.5 325.5,141.5C 322.779,141.963 320.112,142.629 317.5,143.5C 319.121,141.883 321.121,140.716 323.5,140C 322.584,139.722 321.918,139.222 321.5,138.5 Z"/></g>
<g><path style="opacity:1" fill="#342f29" d="M 353.5,168.5 C 357.869,168.467 362.202,168.8 366.5,169.5C 380.552,176.236 387.552,187.569 387.5,203.5C 386.474,219.045 380.474,232.212 369.5,243C 361.064,249.385 351.731,253.885 341.5,256.5C 341.5,250.167 341.5,243.833 341.5,237.5C 343.38,237.771 344.713,237.104 345.5,235.5C 355.615,230.717 362.615,223.05 366.5,212.5C 369.197,206.197 370.031,199.53 369,192.5C 368.626,190.509 367.793,188.842 366.5,187.5C 363.237,181.068 358.403,176.068 352,172.5C 351.227,170.648 351.727,169.314 353.5,168.5 Z"/></g>
<g><path style="opacity:1" fill="#332e29" d="M 406.5,63.5 C 419.44,68.9055 424.94,78.5721 423,92.5C 420.332,98.6977 416.165,103.531 410.5,107C 407.833,107.667 405.167,107.667 402.5,107C 401.106,106.044 400.439,104.711 400.5,103C 401.52,99.791 402.686,96.6243 404,93.5C 406.5,85.3359 403.5,81.0026 395,80.5C 389,80.8333 385,83.8333 383,89.5C 381.158,100.976 384.658,110.476 393.5,118C 400.747,122.304 408.414,125.638 416.5,128C 445.047,134.553 473.38,141.887 501.5,150C 504.834,150.781 508.167,151.114 511.5,151C 498.982,130.668 501.315,112.335 518.5,96C 521.469,93.682 524.802,92.182 528.5,91.5C 532.798,90.8005 537.131,90.4672 541.5,90.5C 560.507,93.3392 569.34,104.339 568,123.5C 567.129,131.511 563.296,137.511 556.5,141.5C 549.618,143.767 542.618,144.1 535.5,142.5C 532.896,140.4 530.396,138.067 528,135.5C 527.333,133.5 527.333,131.5 528,129.5C 532.749,128.695 537.582,128.195 542.5,128C 550.023,123.885 551.357,118.218 546.5,111C 531.107,105.525 522.44,111.025 520.5,127.5C 521.025,133.576 522.859,139.243 526,144.5C 530.907,150.078 536.407,154.911 542.5,159C 566.012,171.249 588.345,185.249 609.5,201C 612.952,203.393 616.619,205.226 620.5,206.5C 619.054,201.608 617.054,196.941 614.5,192.5C 613.204,187.607 611.538,182.94 609.5,178.5C 609.5,177.833 609.5,177.167 609.5,176.5C 609.501,168.483 609.834,160.483 610.5,152.5C 621.534,125.317 641.201,115.817 669.5,124C 678.762,128.442 686.095,134.942 691.5,143.5C 694.003,146.668 695.336,150.335 695.5,154.5C 695.5,155.5 695.5,156.5 695.5,157.5C 695.971,159.288 696.304,161.122 696.5,163C 695.035,166.281 694.368,169.781 694.5,173.5C 693.699,175.042 693.366,176.708 693.5,178.5C 689.073,186.413 682.406,191.579 673.5,194C 652.734,197.229 642.568,188.396 643,167.5C 644.37,162.433 647.537,160.267 652.5,161C 654.723,166.099 657.723,170.765 661.5,175C 669.532,176.951 674.865,174.118 677.5,166.5C 678.161,164.866 678.494,163.033 678.5,161C 678.7,158.134 678.033,155.634 676.5,153.5C 673.765,147.928 669.765,143.428 664.5,140C 645.495,132.497 631.829,137.997 623.5,156.5C 622.732,157.263 622.232,158.263 622,159.5C 621.833,162.833 621.667,166.167 621.5,169.5C 621.3,174.437 621.967,179.104 623.5,183.5C 624.15,185.435 624.483,187.435 624.5,189.5C 624.755,191.967 625.755,193.967 627.5,195.5C 628.234,196.708 628.567,198.041 628.5,199.5C 629.822,199.33 630.989,199.663 632,200.5C 632.495,202.473 632.662,204.473 632.5,206.5C 634.467,206.261 636.301,206.594 638,207.5C 638.207,211.089 638.707,214.589 639.5,218C 641.134,218.494 642.801,218.66 644.5,218.5C 644.184,221.978 644.684,225.312 646,228.5C 648.248,231.328 650.248,234.328 652,237.5C 664.734,249.224 674.734,262.891 682,278.5C 687.281,292.134 688.615,306.134 686,320.5C 680.963,339.933 673.63,358.599 664,376.5C 660.299,384.897 657.466,393.564 655.5,402.5C 654.06,406.406 653.394,410.573 653.5,415C 653.503,417.69 653.836,420.19 654.5,422.5C 655.287,427.696 656.787,432.696 659,437.5C 665.818,448.892 674.818,451.225 686,444.5C 689.797,439.103 689.297,434.269 684.5,430C 679.63,429.398 674.964,429.731 670.5,431C 669.398,428.599 669.231,426.099 670,423.5C 674.828,414.007 682.328,411.007 692.5,414.5C 692.842,415.338 693.508,415.672 694.5,415.5C 694.842,416.338 695.508,416.672 696.5,416.5C 696.5,431.167 696.5,445.833 696.5,460.5C 695.833,460.5 695.5,460.833 695.5,461.5C 694.833,461.5 694.5,461.833 694.5,462.5C 675.226,471.307 659.059,467.307 646,450.5C 642.988,444.928 640.488,439.261 638.5,433.5C 637.843,425.519 637.343,417.519 637,409.5C 636.283,410.044 635.783,410.711 635.5,411.5C 630.022,418.971 623.022,424.637 614.5,428.5C 603.724,431.397 593.057,431.063 582.5,427.5C 569.799,420.113 562.132,409.113 559.5,394.5C 559.413,389.463 559.746,384.463 560.5,379.5C 562.268,373.298 565.101,367.631 569,362.5C 578.31,352.267 589.144,344.1 601.5,338C 598.413,337.741 595.413,337.241 592.5,336.5C 590.485,335.076 588.152,334.41 585.5,334.5C 569.658,327.8 559.658,316.134 555.5,299.5C 555.114,291.381 555.781,283.381 557.5,275.5C 566.465,255.079 582.131,246.245 604.5,249C 609.29,250.563 613.956,252.396 618.5,254.5C 620.5,257.167 622.833,259.5 625.5,261.5C 627.81,264.102 629.643,267.102 631,270.5C 634.457,284.276 630.29,294.776 618.5,302C 610.777,305.007 603.944,303.84 598,298.5C 597.333,296.833 597.333,295.167 598,293.5C 603.573,293.131 608.073,290.797 611.5,286.5C 614.167,282.833 614.167,279.167 611.5,275.5C 604.007,267.055 595.007,265.222 584.5,270C 573.816,277.038 569.982,286.871 573,299.5C 575.455,307.451 580.288,313.451 587.5,317.5C 594.263,322.226 601.597,323.56 609.5,321.5C 612.553,321.889 615.22,321.223 617.5,319.5C 633.252,313.065 642.919,301.398 646.5,284.5C 649.389,268.133 646.389,253.133 637.5,239.5C 637.489,237.983 636.823,236.816 635.5,236C 632.574,235.782 629.74,235.282 627,234.5C 626.985,232.209 626.818,230.042 626.5,228C 624.527,227.505 622.527,227.338 620.5,227.5C 619.835,225.631 619.169,223.631 618.5,221.5C 605.584,211.696 591.917,202.863 577.5,195C 568.577,191.517 559.577,188.683 550.5,186.5C 542.845,183.891 534.845,182.557 526.5,182.5C 522.865,181.886 519.198,181.552 515.5,181.5C 512.518,180.835 509.352,180.502 506,180.5C 500.266,180.415 494.766,181.082 489.5,182.5C 480.671,184.337 473.171,188.671 467,195.5C 465.295,197.577 464.128,199.91 463.5,202.5C 462.883,202.611 462.383,202.944 462,203.5C 461.192,207.027 461.359,210.36 462.5,213.5C 463.374,216.913 465.041,219.913 467.5,222.5C 475.187,229.952 484.187,232.285 494.5,229.5C 504.532,226.613 508.699,219.946 507,209.5C 503.453,205.286 498.953,202.786 493.5,202C 492.196,201.196 491.529,200.029 491.5,198.5C 492.954,196.543 494.62,194.71 496.5,193C 510.491,190.337 520.324,195.503 526,208.5C 528.518,229.301 519.685,242.468 499.5,248C 479.098,252.09 462.598,245.924 450,229.5C 442.351,215.912 442.684,202.579 451,189.5C 457.209,180.14 465.709,173.807 476.5,170.5C 488.358,168.214 500.358,166.881 512.5,166.5C 512.043,165.702 511.376,165.369 510.5,165.5C 509.391,165.443 508.391,165.11 507.5,164.5C 501.484,162.831 495.484,161.165 489.5,159.5C 487.898,157.926 485.898,157.259 483.5,157.5C 482.833,157.5 482.167,157.5 481.5,157.5C 475.447,155.408 469.114,154.075 462.5,153.5C 425.92,144.991 388.92,143.491 351.5,149C 338.631,151.176 326.631,155.51 315.5,162C 306.692,166.816 300.025,173.649 295.5,182.5C 293.672,185.135 292.505,188.135 292,191.5C 291.186,196.02 291.353,200.354 292.5,204.5C 294.167,217.835 300.834,227.835 312.5,234.5C 312.666,240.842 312.5,247.175 312,253.5C 310.644,252.62 309.144,252.286 307.5,252.5C 282.173,239.255 271.34,218.255 275,189.5C 276.431,180.975 279.764,173.308 285,166.5C 293.81,155.838 304.644,148.172 317.5,143.5C 320.112,142.629 322.779,141.963 325.5,141.5C 325.5,140.5 325.5,139.5 325.5,138.5C 324.167,138.5 322.833,138.5 321.5,138.5C 313.055,136.909 304.721,134.742 296.5,132C 289.167,128 281.833,124 274.5,120C 268.499,115.287 266.499,109.454 268.5,102.5C 271.552,100.822 274.885,100.155 278.5,100.5C 286.832,104.64 294.832,109.473 302.5,115C 313.334,120.333 324.667,124.167 336.5,126.5C 343.494,129.184 350.828,130.017 358.5,129C 357.756,127.961 356.756,127.461 355.5,127.5C 338.38,119.552 325.214,107.219 316,90.5C 314.348,85.1541 315.848,80.9875 320.5,78C 324.12,77.1593 327.454,77.826 330.5,80C 336.456,88.0786 342.289,96.2453 348,104.5C 352.114,108.461 356.614,111.794 361.5,114.5C 365.33,117.748 369.663,119.915 374.5,121C 371.164,116.817 368.497,112.317 366.5,107.5C 366.483,105.435 366.15,103.435 365.5,101.5C 365.347,95.1308 365.68,88.7974 366.5,82.5C 369.905,72.762 376.572,66.4287 386.5,63.5C 393.146,62.259 399.813,62.259 406.5,63.5 Z"/></g>
<g><path style="opacity:1" fill="#cbcac6" d="M 366.5,187.5 C 367.793,188.842 368.626,190.509 369,192.5C 370.031,199.53 369.197,206.197 366.5,212.5C 367.833,204.167 367.833,195.833 366.5,187.5 Z"/></g>
<g><path style="opacity:1" fill="#ccc9c6" d="M 295.5,182.5 C 293.845,189.703 292.845,197.037 292.5,204.5C 291.353,200.354 291.186,196.02 292,191.5C 292.505,188.135 293.672,185.135 295.5,182.5 Z"/></g>
<g><path style="opacity:1" fill="#8d8985" d="M 624.5,189.5 C 626.245,191.033 627.245,193.033 627.5,195.5C 625.755,193.967 624.755,191.967 624.5,189.5 Z"/></g>
<g><path style="opacity:1" fill="#a8a6a2" d="M 609.5,178.5 C 611.538,182.94 613.204,187.607 614.5,192.5C 611.676,188.37 610.009,183.703 609.5,178.5 Z"/></g>
<g><path style="opacity:1" fill="#878381" d="M 526.5,182.5 C 534.845,182.557 542.845,183.891 550.5,186.5C 542.302,185.578 534.302,184.245 526.5,182.5 Z"/></g>
<g><path style="opacity:1" fill="#83817d" d="M 515.5,181.5 C 506.818,181.521 498.152,181.854 489.5,182.5C 494.766,181.082 500.266,180.415 506,180.5C 509.352,180.502 512.518,180.835 515.5,181.5 Z"/></g>
<g><path style="opacity:1" fill="#bdbbb8" d="M 623.5,156.5 C 622.203,165.495 622.203,174.495 623.5,183.5C 621.967,179.104 621.3,174.437 621.5,169.5C 621.667,166.167 621.833,162.833 622,159.5C 622.232,158.263 622.732,157.263 623.5,156.5 Z"/></g>
<g><path style="opacity:1" fill="#615d5a" d="M 510.5,165.5 C 511.376,165.369 512.043,165.702 512.5,166.5C 500.358,166.881 488.358,168.214 476.5,170.5C 476.611,169.883 476.944,169.383 477.5,169C 482.375,167.364 487.375,166.531 492.5,166.5C 498.69,166.823 504.69,166.49 510.5,165.5 Z"/></g>
<g><path style="opacity:1" fill="#868581" d="M 353.5,168.5 C 354.964,167.84 356.631,167.507 358.5,167.5C 361.486,167.382 364.152,168.048 366.5,169.5C 362.202,168.8 357.869,168.467 353.5,168.5 Z"/></g>
<g><path style="opacity:1" fill="#888580" d="M 610.5,152.5 C 609.834,160.483 609.501,168.483 609.5,176.5C 608.835,173.686 608.502,170.686 608.5,167.5C 608.392,162.255 609.058,157.255 610.5,152.5 Z"/></g>
<g><path style="opacity:1" fill="#bbb5b0" d="M 507.5,164.5 C 508.391,165.11 509.391,165.443 510.5,165.5C 504.69,166.49 498.69,166.823 492.5,166.5C 497.5,165.833 502.5,165.167 507.5,164.5 Z"/></g>
<g><path style="opacity:1" fill="#85827f" d="M 676.5,153.5 C 678.033,155.634 678.7,158.134 678.5,161C 678.494,163.033 678.161,164.866 677.5,166.5C 677.533,162.131 677.2,157.798 676.5,153.5 Z"/></g>
<g><path style="opacity:1" fill="#7e7c7a" d="M 483.5,157.5 C 485.898,157.259 487.898,157.926 489.5,159.5C 487.102,159.741 485.102,159.074 483.5,157.5 Z"/></g>
<g><path style="opacity:1" fill="#cdccc8" d="M 462.5,153.5 C 469.114,154.075 475.447,155.408 481.5,157.5C 477.606,156.483 473.773,156.483 470,157.5C 467.49,155.998 464.99,154.664 462.5,153.5 Z"/></g>
<g><path style="opacity:1" fill="#6e6c68" d="M 556.5,141.5 C 555.653,142.966 554.32,143.8 552.5,144C 547.5,144.667 542.5,144.667 537.5,144C 536.584,143.722 535.918,143.222 535.5,142.5C 542.618,144.1 549.618,143.767 556.5,141.5 Z"/></g>
<g><path style="opacity:1" fill="#a5a09b" d="M 336.5,126.5 C 341.91,126.515 347.243,127.182 352.5,128.5C 353.726,128.48 354.726,128.147 355.5,127.5C 356.756,127.461 357.756,127.961 358.5,129C 350.828,130.017 343.494,129.184 336.5,126.5 Z"/></g>
<g><path style="opacity:1" fill="#d6d2cc" d="M 366.5,107.5 C 368.497,112.317 371.164,116.817 374.5,121C 369.663,119.915 365.33,117.748 361.5,114.5C 363.391,115.536 365.224,115.536 367,114.5C 367.018,112.203 366.851,109.869 366.5,107.5 Z"/></g>
<g><path style="opacity:1" fill="#807c78" d="M 366.5,82.5 C 365.68,88.7974 365.347,95.1308 365.5,101.5C 364.836,99.0221 364.503,96.3555 364.5,93.5C 364.294,89.5313 364.961,85.8646 366.5,82.5 Z"/></g>
<g><path style="opacity:1" fill="#8a8a83" d="M 463.5,202.5 C 462.656,206.099 462.323,209.766 462.5,213.5C 461.359,210.36 461.192,207.027 462,203.5C 462.383,202.944 462.883,202.611 463.5,202.5 Z"/></g>
<g><path style="opacity:1" fill="#dedcd7" d="M 467.5,222.5 C 469.044,222.703 470.378,223.37 471.5,224.5C 472.816,221.972 473.983,221.972 475,224.5C 479.141,223.142 480.307,224.476 478.5,228.5C 483.805,229.194 489.138,229.528 494.5,229.5C 484.187,232.285 475.187,229.952 467.5,222.5 Z"/></g>
<g><path style="opacity:1" fill="#514741" d="M 345.5,235.5 C 344.713,237.104 343.38,237.771 341.5,237.5C 341.5,243.833 341.5,250.167 341.5,256.5C 340.833,256.5 340.5,256.833 340.5,257.5C 339.111,262.269 338.444,267.269 338.5,272.5C 338.677,276.234 338.344,279.901 337.5,283.5C 336.566,284.568 336.232,285.901 336.5,287.5C 329.833,287.5 323.167,287.5 316.5,287.5C 316.784,285.585 316.451,283.919 315.5,282.5C 314.924,273.815 314.091,265.148 313,256.5C 311.315,254.895 309.482,253.562 307.5,252.5C 309.144,252.286 310.644,252.62 312,253.5C 312.5,247.175 312.666,240.842 312.5,234.5C 315.243,233.612 317.91,232.445 320.5,231C 324.5,230.333 328.5,230.333 332.5,231C 335.677,232.85 338.843,234.683 342,236.5C 343.138,236.011 344.305,235.678 345.5,235.5 Z"/></g>
<g><path style="opacity:1" fill="#e1e0db" d="M 620.5,227.5 C 622.527,227.338 624.527,227.505 626.5,228C 626.818,230.042 626.985,232.209 627,234.5C 629.74,235.282 632.574,235.782 635.5,236C 636.823,236.816 637.489,237.983 637.5,239.5C 635.123,239.216 632.956,239.216 631,239.5C 630.544,238.256 631.044,237.423 632.5,237C 628.304,237.028 624.638,235.695 621.5,233C 622.167,232.333 622.833,231.667 623.5,231C 621.937,230.241 620.937,229.074 620.5,227.5 Z"/></g>
<g><path style="opacity:1" fill="#afacaa" d="M 618.5,254.5 C 621.833,255.833 624.167,258.167 625.5,261.5C 622.833,259.5 620.5,257.167 618.5,254.5 Z"/></g>
<g><path style="opacity:1" fill="#d7d2cf" d="M 695.5,170.5 C 696.167,211.165 696.5,251.999 696.5,293C 696.5,334.172 695.833,375.005 694.5,415.5C 693.508,415.672 692.842,415.338 692.5,414.5C 693.5,414.5 694.5,414.5 695.5,414.5C 695.667,334.833 695.5,255.166 695,175.5C 694.768,176.737 694.268,177.737 693.5,178.5C 693.366,176.708 693.699,175.042 694.5,173.5C 695.404,172.791 695.737,171.791 695.5,170.5 Z"/></g>
<g><path style="opacity:1" fill="#faf9f8" d="M 655.5,252.5 C 675.795,276.719 680.295,303.719 669,333.5C 662.903,346.789 656.237,359.789 649,372.5C 647.196,377.58 645.196,382.58 643,387.5C 640.01,369.843 629.677,359.51 612,356.5C 601.606,356.363 594.273,361.03 590,370.5C 588.2,385.151 592.7,387.318 603.5,377C 618.604,374.77 625.104,381.27 623,396.5C 616.325,410.921 605.158,416.421 589.5,413C 578.902,407.883 573.236,399.383 572.5,387.5C 574.49,375.028 580.49,364.861 590.5,357C 598.818,350.507 607.485,344.507 616.5,339C 618.167,337.333 619.833,335.667 621.5,334C 643.34,324.172 655.84,307.339 659,283.5C 659.847,272.93 658.68,262.597 655.5,252.5 Z"/></g>
<g><path style="opacity:1" fill="#a59d99" d="M 340.5,257.5 C 340.904,262.783 340.238,267.783 338.5,272.5C 338.444,267.269 339.111,262.269 340.5,257.5 Z"/></g>
<g><path style="opacity:1" fill="#b5b3b0" d="M 611.5,275.5 C 614.167,279.167 614.167,282.833 611.5,286.5C 611.5,282.833 611.5,279.167 611.5,275.5 Z"/></g>
<g><path style="opacity:1" fill="#797671" d="M 557.5,275.5 C 555.781,283.381 555.114,291.381 555.5,299.5C 554.347,293.347 554.18,287.014 555,280.5C 555.757,278.685 556.59,277.019 557.5,275.5 Z"/></g>
<g><path style="opacity:1" fill="#847f7e" d="M 337.5,283.5 C 337.5,285.167 337.5,286.833 337.5,288.5C 350.521,288.504 363.187,290.171 375.5,293.5C 374.127,293.343 372.793,293.51 371.5,294C 369.333,297.5 366.5,300.333 363,302.5C 358.581,309.672 353.915,316.672 349,323.5C 346.066,315.53 343.232,307.53 340.5,299.5C 339.5,299.5 338.5,299.5 337.5,299.5C 336.83,295.139 334.497,291.805 330.5,289.5C 332.631,288.831 334.631,288.165 336.5,287.5C 336.232,285.901 336.566,284.568 337.5,283.5 Z"/></g>
<g><path style="opacity:1" fill="#b5b3b2" d="M 297.5,289.5 C 291.186,290.941 284.853,292.274 278.5,293.5C 277.5,293.5 276.5,293.5 275.5,293.5C 271.5,294.167 267.5,294.833 263.5,295.5C 265.476,293.989 267.809,293.156 270.5,293C 279.454,291.396 288.454,290.229 297.5,289.5 Z"/></g>
<g><path style="opacity:1" fill="#837e7d" d="M 315.5,282.5 C 316.451,283.919 316.784,285.585 316.5,287.5C 318.631,288.314 320.964,288.814 323.5,289C 322.5,289.333 321.5,289.667 320.5,290C 314.654,297.189 310.488,305.356 308,314.5C 306.512,317.333 304.845,319.999 303,322.5C 297.619,316.425 292.953,309.758 289,302.5C 285.85,298.832 282.35,295.832 278.5,293.5C 284.853,292.274 291.186,290.941 297.5,289.5C 303.441,288.587 309.441,288.254 315.5,288.5C 315.5,286.5 315.5,284.5 315.5,282.5 Z"/></g>
<g><path style="opacity:1" fill="#776c69" d="M 696.5,416.5 C 695.508,416.672 694.842,416.338 694.5,415.5C 695.833,375.005 696.5,334.172 696.5,293C 696.5,251.999 696.167,211.165 695.5,170.5C 695.461,169.244 695.961,168.244 697,167.5C 697.832,250.668 697.666,333.668 696.5,416.5 Z"/></g>
<g><path style="opacity:1" fill="#837e7e" d="M 384.5,294.5 C 397.732,297.558 410.732,301.391 423.5,306C 424.942,306.377 425.942,307.21 426.5,308.5C 424.801,308.34 423.134,308.506 421.5,309C 417.833,311.333 414.167,313.667 410.5,316C 405.629,322.036 400.296,327.536 394.5,332.5C 391.762,319.628 388.428,306.961 384.5,294.5 Z"/></g>
<g><path style="opacity:1" fill="#847e7e" d="M 275.5,293.5 C 273.14,295.501 270.473,297.168 267.5,298.5C 267,299.5 266.5,300.5 266,301.5C 263.346,312.061 261.179,322.727 259.5,333.5C 252.109,325.954 244.442,318.621 236.5,311.5C 233.905,310.287 231.405,308.953 229,307.5C 227.234,308.233 225.401,308.567 223.5,308.5C 236.348,302.996 249.681,298.663 263.5,295.5C 267.5,294.833 271.5,294.167 275.5,293.5 Z"/></g>
<g><path style="opacity:1" fill="#857f7e" d="M 223.5,308.5 C 220.582,312.34 218.749,316.673 218,321.5C 217.667,331.5 217.333,341.5 217,351.5C 207.905,343.774 197.738,337.607 186.5,333C 184.19,332.503 181.857,332.337 179.5,332.5C 193.125,322.826 207.792,314.826 223.5,308.5 Z"/></g>
<g><path style="opacity:1" fill="#b9b6b4" d="M 609.5,321.5 C 601.597,323.56 594.263,322.226 587.5,317.5C 588.93,317.579 590.264,317.246 591.5,316.5C 592.386,317.325 592.719,318.325 592.5,319.5C 598.096,320.71 603.762,321.377 609.5,321.5 Z"/></g>
<g><path style="opacity:1" fill="#9d9a98" d="M 617.5,319.5 C 615.22,321.223 612.553,321.889 609.5,321.5C 611.961,320.469 614.627,319.802 617.5,319.5 Z"/></g>
<g><path style="opacity:1" fill="#837e7e" d="M 432.5,310.5 C 446.273,316.217 459.273,323.217 471.5,331.5C 467.708,331.726 464.041,332.56 460.5,334C 455.503,337.834 450.17,341.167 444.5,344C 442.566,345.562 440.899,347.395 439.5,349.5C 438.311,350.429 436.978,350.762 435.5,350.5C 435.667,338.829 435.5,327.162 435,315.5C 433.117,314.347 432.284,312.681 432.5,310.5 Z"/></g>
<g><path style="opacity:1" fill="#85817d" d="M 585.5,334.5 C 588.152,334.41 590.485,335.076 592.5,336.5C 589.848,336.59 587.515,335.924 585.5,334.5 Z"/></g>
<g><path style="opacity:1" fill="#847e7d" d="M 176.5,334.5 C 174.646,341.703 174.146,349.036 175,356.5C 176.493,362.624 177.993,368.791 179.5,375C 177.821,375.395 176.155,375.228 174.5,374.5C 164.705,369.135 154.705,365.469 144.5,363.5C 143.264,364.246 141.93,364.579 140.5,364.5C 150.984,352.683 162.984,342.683 176.5,334.5 Z"/></g>
<g><path style="opacity:1" fill="#837e7e" d="M 476.5,334.5 C 490.035,342.706 502.035,352.706 512.5,364.5C 508.154,364.334 503.821,364.501 499.5,365C 490.844,367.714 482.511,371.214 474.5,375.5C 474.167,375.167 473.833,374.833 473.5,374.5C 476.388,365.56 478.054,356.394 478.5,347C 478.67,342.65 478.004,338.483 476.5,334.5 Z"/></g>
<g><path style="opacity:1" fill="#64615d" d="M 710.5,577.5 C 715.5,577.5 720.5,577.5 725.5,577.5C 725.5,418.5 725.5,259.5 725.5,100.5C 719.014,100.081 712.681,100.748 706.5,102.5C 707.058,101.21 708.058,100.377 709.5,100C 715.157,99.5006 720.824,99.3339 726.5,99.5C 726.5,259.167 726.5,418.833 726.5,578.5C 720.974,578.821 715.64,578.488 710.5,577.5 Z"/></g>
<g><path style="opacity:1" fill="#837e7d" d="M 136.5,368.5 C 136.237,380.782 139.404,392.116 146,402.5C 147.205,404.534 147.372,406.534 146.5,408.5C 139.482,407.163 132.482,405.663 125.5,404C 119.13,403.294 112.797,403.461 106.5,404.5C 114.706,390.965 124.706,378.965 136.5,368.5 Z"/></g>
<g><path style="opacity:1" fill="#847f7e" d="M 517.5,368.5 C 529.009,379.669 539.009,392.002 547.5,405.5C 543.938,403.089 539.938,402.089 535.5,402.5C 525.793,403.849 516.126,405.516 506.5,407.5C 506.523,405.073 507.023,402.74 508,400.5C 514.257,390.816 517.424,380.15 517.5,368.5 Z"/></g>
<g><path style="opacity:1" fill="#bbb8b7" d="M 560.5,379.5 C 559.746,384.463 559.413,389.463 559.5,394.5C 558.353,390.354 558.186,386.02 559,381.5C 559.278,380.584 559.778,379.918 560.5,379.5 Z"/></g>
<g><path style="opacity:1" fill="#95928e" d="M 655.5,402.5 C 654.946,409.153 654.612,415.82 654.5,422.5C 653.836,420.19 653.503,417.69 653.5,415C 653.394,410.573 654.06,406.406 655.5,402.5 Z"/></g>
<g><path style="opacity:1" fill="#95938e" d="M 638.5,433.5 C 636.985,426.241 635.985,418.907 635.5,411.5C 635.783,410.711 636.283,410.044 637,409.5C 637.343,417.519 637.843,425.519 638.5,433.5 Z"/></g>
<g><path style="opacity:1" fill="#847e7e" d="M 106.5,404.5 C 105.68,407.448 105.014,410.448 104.5,413.5C 105.56,417.181 106.727,420.847 108,424.5C 112.243,431.909 117.076,438.909 122.5,445.5C 112.183,446.332 101.849,446.832 91.5,447C 87.8685,447.487 84.5351,448.654 81.5,450.5C 87.2523,433.655 95.5856,418.322 106.5,404.5 Z"/></g>
<g><path style="opacity:1" fill="#847e7e" d="M 549.5,408.5 C 568.349,435.337 581.016,465.003 587.5,497.5C 582.207,496.568 577.207,494.735 572.5,492C 566.581,490.53 560.581,489.53 554.5,489C 552.779,488.261 551.113,487.427 549.5,486.5C 556.68,480.024 563.18,473.024 569,465.5C 570.419,463.121 571.586,460.621 572.5,458C 572.097,456.527 571.43,455.194 570.5,454C 571.833,452.333 571.833,450.667 570.5,449C 567.576,448.012 564.576,447.346 561.5,447C 551.172,446.5 540.839,446.334 530.5,446.5C 530.351,445.448 530.517,444.448 531,443.5C 538.531,435.094 544.531,425.761 549,415.5C 549.497,413.19 549.663,410.857 549.5,408.5 Z"/></g>
<g><path style="opacity:1" fill="#e1dfdc" d="M 582.5,427.5 C 593.057,431.063 603.724,431.397 614.5,428.5C 613.014,430.559 611.18,431.225 609,430.5C 603.361,430.895 597.861,431.895 592.5,433.5C 590.227,432.349 587.894,431.349 585.5,430.5C 584.007,429.859 583.007,428.859 582.5,427.5 Z"/></g>
<g><path style="opacity:1" fill="#847e7e" d="M 80.5,452.5 C 80.7135,454.144 80.3802,455.644 79.5,457C 81.1244,459.631 82.291,462.464 83,465.5C 89.6775,473.344 96.8442,480.677 104.5,487.5C 95.5319,489.329 86.5319,491.163 77.5,493C 73.3321,495.355 69.3321,497.855 65.5,500.5C 68.1305,483.616 73.1305,467.616 80.5,452.5 Z"/></g>
<g><path style="opacity:1" fill="#6f6a69" d="M 316.5,287.5 C 323.167,287.5 329.833,287.5 336.5,287.5C 334.631,288.165 332.631,288.831 330.5,289.5C 334.497,291.805 336.83,295.139 337.5,299.5C 338.5,299.5 339.5,299.5 340.5,299.5C 343.232,307.53 346.066,315.53 349,323.5C 353.915,316.672 358.581,309.672 363,302.5C 366.5,300.333 369.333,297.5 371.5,294C 372.793,293.51 374.127,293.343 375.5,293.5C 378.482,293.963 381.482,294.296 384.5,294.5C 388.428,306.961 391.762,319.628 394.5,332.5C 400.296,327.536 405.629,322.036 410.5,316C 414.167,313.667 417.833,311.333 421.5,309C 423.134,308.506 424.801,308.34 426.5,308.5C 428.703,308.604 430.703,309.27 432.5,310.5C 432.284,312.681 433.117,314.347 435,315.5C 435.5,327.162 435.667,338.829 435.5,350.5C 436.978,350.762 438.311,350.429 439.5,349.5C 440.899,347.395 442.566,345.562 444.5,344C 450.17,341.167 455.503,337.834 460.5,334C 464.041,332.56 467.708,331.726 471.5,331.5C 473.332,332.248 474.999,333.248 476.5,334.5C 478.004,338.483 478.67,342.65 478.5,347C 478.054,356.394 476.388,365.56 473.5,374.5C 473.833,374.833 474.167,375.167 474.5,375.5C 482.511,371.214 490.844,367.714 499.5,365C 503.821,364.501 508.154,364.334 512.5,364.5C 514.167,365.833 515.833,367.167 517.5,368.5C 517.424,380.15 514.257,390.816 508,400.5C 507.023,402.74 506.523,405.073 506.5,407.5C 516.126,405.516 525.793,403.849 535.5,402.5C 539.938,402.089 543.938,403.089 547.5,405.5C 548.401,406.29 549.068,407.29 549.5,408.5C 549.663,410.857 549.497,413.19 549,415.5C 544.531,425.761 538.531,435.094 531,443.5C 530.517,444.448 530.351,445.448 530.5,446.5C 540.839,446.334 551.172,446.5 561.5,447C 564.576,447.346 567.576,448.012 570.5,449C 571.833,450.667 571.833,452.333 570.5,454C 571.43,455.194 572.097,456.527 572.5,458C 571.586,460.621 570.419,463.121 569,465.5C 563.18,473.024 556.68,480.024 549.5,486.5C 551.113,487.427 552.779,488.261 554.5,489C 560.581,489.53 566.581,490.53 572.5,492C 577.207,494.735 582.207,496.568 587.5,497.5C 587.223,500.448 587.556,503.281 588.5,506C 582.784,515.858 574.45,522.358 563.5,525.5C 563.5,526.5 563.5,527.5 563.5,528.5C 560.916,528.569 558.916,529.735 557.5,532C 557.833,532.333 558.167,532.667 558.5,533C 567.036,535.799 575.369,539.132 583.5,543C 586.312,544.977 588.978,547.144 591.5,549.5C 593.909,555.957 592.242,560.957 586.5,564.5C 577.511,569.426 568.178,573.759 558.5,577.5C 567.514,584.026 576.348,590.693 585,597.5C 587.128,600.824 587.961,604.491 587.5,608.5C 587.5,608.833 587.5,609.167 587.5,609.5C 582.636,613.846 576.97,616.679 570.5,618C 563.154,619.565 555.821,621.065 548.5,622.5C 556.563,629.561 563.896,637.227 570.5,645.5C 572.752,650.359 573.085,655.359 571.5,660.5C 570.255,661.602 568.922,662.602 567.5,663.5C 555.5,664.167 543.5,664.833 531.5,665.5C 536.683,673.213 541.85,680.88 547,688.5C 548.631,692.688 549.464,697.021 549.5,701.5C 548.488,702.872 547.488,704.205 546.5,705.5C 541.413,707.496 536.08,707.996 530.5,707C 522.212,704.976 513.878,703.142 505.5,701.5C 509.595,710.694 513.428,720.027 517,729.5C 517.248,732.919 517.748,736.253 518.5,739.5C 516.833,741.833 514.833,743.833 512.5,745.5C 504.073,746.765 496.406,744.931 489.5,740C 484.265,738.975 479.265,737.475 474.5,735.5C 475.973,744.134 477.307,752.801 478.5,761.5C 478.122,766.241 477.456,770.908 476.5,775.5C 475.5,776.167 474.5,776.833 473.5,777.5C 468.632,777.76 463.965,776.926 459.5,775C 453.167,770.667 446.833,766.333 440.5,762C 439.207,761.51 437.873,761.343 436.5,761.5C 437.783,774.975 436.116,787.975 431.5,800.5C 430.833,800.5 430.167,800.5 429.5,800.5C 428.504,800.586 427.671,800.252 427,799.5C 426.612,800.428 425.945,801.095 425,801.5C 422.005,800.724 419.172,799.557 416.5,798C 409.183,792.186 402.849,785.686 397.5,778.5C 396.178,778.67 395.011,778.337 394,777.5C 392.424,787.931 390.091,798.264 387,808.5C 385.121,810.527 383.954,812.86 383.5,815.5C 381.194,815.993 378.861,816.326 376.5,816.5C 373.362,815.874 370.529,814.54 368,812.5C 361.987,803.665 355.82,794.998 349.5,786.5C 348.5,788 347.5,789.5 346.5,791C 344.3,803.302 338.633,813.469 329.5,821.5C 327.167,821.5 324.833,821.5 322.5,821.5C 321.207,819.704 319.707,818.037 318,816.5C 315.743,810.313 312.743,804.646 309,799.5C 307.263,795.348 306.096,791.014 305.5,786.5C 304.5,786.5 303.5,786.5 302.5,786.5C 302.101,790.961 299.934,794.294 296,796.5C 293.194,804.29 288.361,810.457 281.5,815C 273.489,817.212 268.322,814.379 266,806.5C 263.285,797.317 261.451,787.984 260.5,778.5C 258.712,778.215 257.045,778.548 255.5,779.5C 249.626,787.873 242.293,794.706 233.5,800C 231.302,800.373 229.135,800.873 227,801.5C 225.234,800.767 223.401,800.433 221.5,800.5C 221.5,800.167 221.5,799.833 221.5,799.5C 219.569,795.448 218.402,791.115 218,786.5C 217.832,777.482 217.332,768.482 216.5,759.5C 208.266,765.888 199.599,771.721 190.5,777C 186.446,777.694 182.446,777.527 178.5,776.5C 177.508,776.672 176.842,776.338 176.5,775.5C 174.914,772.297 174.247,768.797 174.5,765C 175.524,755.234 177.191,745.567 179.5,736C 179.167,735.5 178.833,735 178.5,734.5C 172.804,736.397 167.471,738.897 162.5,742C 154.964,744.626 147.297,745.46 139.5,744.5C 138.167,743.833 137.167,742.833 136.5,741.5C 136.166,735.012 136.999,728.678 139,722.5C 142.018,715.828 144.852,709.161 147.5,702.5C 139.87,702.848 132.537,704.348 125.5,707C 118.993,707.978 112.659,707.478 106.5,705.5C 105.833,704.5 105.167,703.5 104.5,702.5C 104.275,697.752 104.775,693.085 106,688.5C 111.156,680.863 116.323,673.196 121.5,665.5C 111.167,664.833 100.833,664.167 90.5,663.5C 87.5559,662.296 84.5559,661.296 81.5,660.5C 80.8333,658.5 80.1667,656.5 79.5,654.5C 79.0617,651.107 79.8951,648.107 82,645.5C 89.0383,637.296 96.5383,629.629 104.5,622.5C 91.4091,620.577 78.7425,617.244 66.5,612.5C 65.8505,610.565 65.5172,608.565 65.5,606.5C 65.3379,604.473 65.5045,602.473 66,600.5C 73.4672,592.246 82.3006,586.079 92.5,582C 93.8333,580.667 95.1667,579.333 96.5,578C 86.5212,574.587 76.8546,570.42 67.5,565.5C 64.9941,563.494 62.8274,561.16 61,558.5C 60.3333,555.833 60.3333,553.167 61,550.5C 63.6136,548.303 65.7803,545.803 67.5,543C 70.4245,542.012 73.4245,541.346 76.5,541C 78.1581,539.17 80.1581,537.836 82.5,537C 86.5073,535.702 90.5073,534.535 94.5,533.5C 94.5,532.5 94.5,531.5 94.5,530.5C 93.448,530.649 92.448,530.483 91.5,530C 86.1355,525.986 80.4688,522.486 74.5,519.5C 71.8542,516.02 69.0209,512.686 66,509.5C 65.5034,507.19 65.3367,504.857 65.5,502.5C 65.5,501.833 65.5,501.167 65.5,500.5C 69.3321,497.855 73.3321,495.355 77.5,493C 86.5319,491.163 95.5319,489.329 104.5,487.5C 96.8442,480.677 89.6775,473.344 83,465.5C 82.291,462.464 81.1244,459.631 79.5,457C 80.3802,455.644 80.7135,454.144 80.5,452.5C 80.3284,451.508 80.6618,450.842 81.5,450.5C 84.5351,448.654 87.8685,447.487 91.5,447C 101.849,446.832 112.183,446.332 122.5,445.5C 117.076,438.909 112.243,431.909 108,424.5C 106.727,420.847 105.56,417.181 104.5,413.5C 105.014,410.448 105.68,407.448 106.5,404.5C 112.797,403.461 119.13,403.294 125.5,404C 132.482,405.663 139.482,407.163 146.5,408.5C 147.372,406.534 147.205,404.534 146,402.5C 139.404,392.116 136.237,380.782 136.5,368.5C 137.5,366.833 138.833,365.5 140.5,364.5C 141.93,364.579 143.264,364.246 144.5,363.5C 154.705,365.469 164.705,369.135 174.5,374.5C 176.155,375.228 177.821,375.395 179.5,375C 177.993,368.791 176.493,362.624 175,356.5C 174.146,349.036 174.646,341.703 176.5,334.5C 176.973,333.094 177.973,332.427 179.5,332.5C 181.857,332.337 184.19,332.503 186.5,333C 197.738,337.607 207.905,343.774 217,351.5C 217.333,341.5 217.667,331.5 218,321.5C 218.749,316.673 220.582,312.34 223.5,308.5C 225.401,308.567 227.234,308.233 229,307.5C 231.405,308.953 233.905,310.287 236.5,311.5C 244.442,318.621 252.109,325.954 259.5,333.5C 261.179,322.727 263.346,312.061 266,301.5C 266.5,300.5 267,299.5 267.5,298.5C 270.473,297.168 273.14,295.501 275.5,293.5C 276.5,293.5 277.5,293.5 278.5,293.5C 282.35,295.832 285.85,298.832 289,302.5C 292.953,309.758 297.619,316.425 303,322.5C 304.845,319.999 306.512,317.333 308,314.5C 310.488,305.356 314.654,297.189 320.5,290C 321.5,289.667 322.5,289.333 323.5,289C 320.964,288.814 318.631,288.314 316.5,287.5 Z"/></g>
<g><path style="opacity:1" fill="#837d7d" d="M 543.5,491.5 C 554.694,492.381 565.694,494.381 576.5,497.5C 579.676,498.845 582.009,501.012 583.5,504C 583.259,505.984 582.592,507.817 581.5,509.5C 572.728,516.727 563.395,523.227 553.5,529C 550.072,529.701 546.738,529.368 543.5,528C 537.943,525.391 532.61,522.557 527.5,519.5C 526.054,516.662 525.554,513.662 526,510.5C 531.664,504.003 537.497,497.67 543.5,491.5 Z"/></g>
<g><path style="opacity:1" fill="#847d7d" d="M 107.5,491.5 C 116.765,496.604 123.432,504.104 127.5,514C 127.025,515.763 126.358,517.43 125.5,519C 120.506,521.991 115.506,524.991 110.5,528C 106.551,529.184 102.551,529.518 98.5,529C 88.1448,523.25 78.6448,516.417 70,508.5C 69.3333,506.833 69.3333,505.167 70,503.5C 71.8783,501.957 73.3783,500.124 74.5,498C 85.332,494.656 96.332,492.489 107.5,491.5 Z"/></g>
<g><path style="opacity:1" fill="#837e7e" d="M 491.5,445.5 C 494.606,446.707 497.606,448.207 500.5,450C 507.524,450.169 514.524,450.669 521.5,451.5C 520.078,454.922 517.745,457.255 514.5,458.5C 513.557,463.889 511.89,469.056 509.5,474C 509.851,476.589 510.518,479.089 511.5,481.5C 515.535,483.57 519.535,485.737 523.5,488C 528.252,488.725 532.919,489.725 537.5,491C 533.311,496.187 528.811,501.02 524,505.5C 522.717,509.414 521.884,513.414 521.5,517.5C 515.235,492.064 505.235,468.064 491.5,445.5 Z"/></g>
<g><path style="opacity:1" fill="#827d7d" d="M 161.5,446.5 C 155.84,455.146 150.673,464.146 146,473.5C 140.993,487.898 136.16,502.231 131.5,516.5C 131.704,511.576 130.204,507.242 127,503.5C 122.984,499.652 119.151,495.652 115.5,491.5C 115.709,490.914 116.043,490.414 116.5,490C 125.89,490.401 134.057,487.568 141,481.5C 142.457,477.259 142.791,472.926 142,468.5C 139.126,462.457 135.626,456.79 131.5,451.5C 137.979,450.635 144.479,449.968 151,449.5C 154.513,448.485 158.013,447.485 161.5,446.5 Z"/></g>
<g><path style="opacity:1" fill="#847d7d" d="M 535.5,449.5 C 544.173,449.334 552.84,449.5 561.5,450C 562.993,451.368 564.493,451.535 566,450.5C 567.633,452.453 568.799,454.62 569.5,457C 568.348,459.158 567.181,461.325 566,463.5C 559.322,471.344 552.156,478.677 544.5,485.5C 543,485.833 541.5,486.167 540,486.5C 532.144,484.884 524.31,483.051 516.5,481C 514.752,479.394 513.752,477.394 513.5,475C 516.406,466.598 520.406,458.765 525.5,451.5C 528.977,450.833 532.311,450.166 535.5,449.5 Z"/></g>
<g><path style="opacity:1" fill="#847d7d" d="M 94.5,449.5 C 103.173,449.334 111.84,449.5 120.5,450C 122.577,450.192 124.577,450.692 126.5,451.5C 130.505,457.837 134.505,464.17 138.5,470.5C 139.941,473.736 139.608,476.736 137.5,479.5C 133.5,481.167 129.5,482.833 125.5,484.5C 120.264,486.138 114.93,486.638 109.5,486C 99.9751,478.473 91.8084,469.64 85,459.5C 84.3333,457.5 84.3333,455.5 85,453.5C 88.0665,451.784 91.2332,450.45 94.5,449.5 Z"/></g>
<g><path style="opacity:1" fill="#827e7d" d="M 184.5,417.5 C 176.762,425.898 169.428,434.565 162.5,443.5C 163.008,440.824 163.175,438.157 163,435.5C 161.408,430.625 160.074,425.625 159,420.5C 157.164,419.331 155.998,417.664 155.5,415.5C 156.167,415.167 156.833,414.833 157.5,414.5C 166.322,417.031 175.322,418.031 184.5,417.5 Z"/></g>
<g><path style="opacity:1" fill="#847d7d" d="M 531.5,406.5 C 535.637,406.146 539.637,406.646 543.5,408C 545.478,410.497 545.978,413.331 545,416.5C 539.007,426.478 532.507,436.145 525.5,445.5C 517.855,446.665 510.188,446.831 502.5,446C 500.624,444.983 498.624,444.149 496.5,443.5C 494.475,439.069 493.975,434.402 495,429.5C 497.744,424.418 500.577,419.418 503.5,414.5C 504.601,412.898 506.101,411.898 508,411.5C 516.102,410.33 523.935,408.663 531.5,406.5 Z"/></g>
<g><path style="opacity:1" fill="#837d7d" d="M 111.5,407.5 C 124.63,408.138 137.63,409.804 150.5,412.5C 152.402,418.986 154.902,425.319 158,431.5C 158.667,434.833 158.667,438.167 158,441.5C 156.333,443.628 154.166,444.961 151.5,445.5C 143.193,446.498 134.86,446.831 126.5,446.5C 125.447,441.61 122.947,437.61 119,434.5C 115.401,428.966 112.068,423.299 109,417.5C 108.333,414.833 108.333,412.167 109,409.5C 109.995,408.934 110.828,408.267 111.5,407.5 Z"/></g>
<g><path style="opacity:1" fill="#837e7e" d="M 491.5,444.5 C 441.338,377.615 374.338,349.282 290.5,359.5C 293.814,356.677 296.647,353.344 299,349.5C 300.3,344.905 302.133,340.572 304.5,336.5C 309.848,342.024 314.848,347.858 319.5,354C 324.951,356.412 329.951,355.745 334.5,352C 339.795,346.553 344.461,340.719 348.5,334.5C 350.933,340.048 353.433,345.714 356,351.5C 361.424,360.448 368.59,361.948 377.5,356C 378.833,355.333 378.833,354.667 377.5,354C 379.725,353.439 381.725,352.439 383.5,351C 385.311,348.022 387.644,345.522 390.5,343.5C 392.242,351.8 394.909,359.8 398.5,367.5C 401.771,371.089 405.771,372.256 410.5,371C 416.508,368.819 422.175,365.986 427.5,362.5C 428.386,361.675 428.719,360.675 428.5,359.5C 429.5,359.5 430.5,359.5 431.5,359.5C 431.262,367.88 431.762,376.213 433,384.5C 434.141,386.609 435.641,388.442 437.5,390C 441.833,390.667 446.167,390.667 450.5,390C 455.947,388.441 461.28,386.607 466.5,384.5C 465.426,392.849 464.759,401.016 464.5,409C 466.72,415.11 471.22,417.943 478,417.5C 482.546,417.157 487.046,416.491 491.5,415.5C 492.994,415.709 494.161,416.376 495,417.5C 495.333,416.833 495.667,416.167 496,415.5C 496.667,417.167 496.667,418.833 496,420.5C 491.232,427.842 489.732,435.842 491.5,444.5 Z"/></g>
<g><path style="opacity:1" fill="#847d7d" d="M 141.5,368.5 C 144.85,368.335 148.183,368.502 151.5,369C 156.138,371.418 161.138,373.085 166.5,374C 167.5,375 168.5,376 169.5,377C 173.617,378.227 177.617,379.727 181.5,381.5C 181.46,384.425 182.293,387.091 184,389.5C 184.5,396.826 184.666,404.159 184.5,411.5C 174.143,413.421 163.81,412.921 153.5,410C 148.007,399.856 143.507,389.356 140,378.5C 139.232,374.925 139.732,371.592 141.5,368.5 Z"/></g>
<g><path style="opacity:1" fill="#847d7d" d="M 499.5,368.5 C 503.514,368.334 507.514,368.501 511.5,369C 512.137,371.243 512.47,373.576 512.5,376C 511.782,380.937 510.616,385.771 509,390.5C 505.339,396.822 502.505,403.488 500.5,410.5C 494.722,410.527 489.056,411.36 483.5,413C 479.5,413.667 475.5,413.667 471.5,413C 469.067,409.615 468.067,405.782 468.5,401.5C 468.767,394.627 469.767,387.96 471.5,381.5C 472.873,381.657 474.207,381.49 475.5,381C 477.993,378.92 480.659,377.086 483.5,375.5C 489.187,373.657 494.521,371.324 499.5,368.5 Z"/></g>
<g><path style="opacity:1" fill="#827f7e" d="M 288.5,360.5 C 249.446,369.362 215.446,387.695 186.5,415.5C 189.014,405.866 189.014,396.2 186.5,386.5C 187,386.167 187.5,385.833 188,385.5C 197.063,390.478 206.563,391.645 216.5,389C 218.487,387.681 219.654,385.848 220,383.5C 221.656,376.258 222.822,368.924 223.5,361.5C 228.964,364.468 234.297,367.634 239.5,371C 247.526,373.219 253.359,370.719 257,363.5C 258.967,357.999 260.301,352.332 261,346.5C 261.561,345.978 262.228,345.645 263,345.5C 267.939,349.493 272.773,353.66 277.5,358C 280.923,359.904 284.59,360.737 288.5,360.5 Z"/></g>
<g><path style="opacity:1" fill="#847e7d" d="M 464.5,336.5 C 467.881,336.46 471.214,336.793 474.5,337.5C 473.636,350.959 471.803,364.293 469,377.5C 467.926,378.618 466.76,379.618 465.5,380.5C 460.518,382.218 455.518,384.051 450.5,386C 446.5,386.667 442.5,386.667 438.5,386C 436.159,380.434 435.159,374.601 435.5,368.5C 435.321,364.004 435.987,359.671 437.5,355.5C 440.291,353.211 442.958,350.711 445.5,348C 452.025,344.272 458.358,340.438 464.5,336.5 Z"/></g>
<g><path style="opacity:1" fill="#847d7d" d="M 179.5,337.5 C 187.187,337.339 194.187,339.506 200.5,344C 203.762,347.095 207.428,349.595 211.5,351.5C 213.568,353.945 215.735,356.278 218,358.5C 218.57,366.197 218.236,373.864 217,381.5C 216.129,384.873 213.962,386.54 210.5,386.5C 201.439,386.005 193.105,383.338 185.5,378.5C 180.443,365.339 178.443,351.672 179.5,337.5 Z"/></g>
<g><path style="opacity:1" fill="#847d7d" d="M 224.5,312.5 C 229.477,311.826 233.811,313.16 237.5,316.5C 244.24,323.402 250.74,330.402 257,337.5C 257.308,345.306 256.308,352.973 254,360.5C 251.747,367.106 247.247,369.273 240.5,367C 233.888,363.448 227.722,359.281 222,354.5C 221.333,342.5 221.333,330.5 222,318.5C 223.122,316.593 223.955,314.593 224.5,312.5 Z"/></g>
<g><path style="opacity:1" fill="#837d7d" d="M 421.5,312.5 C 424.97,311.875 427.804,312.875 430,315.5C 431.737,328.798 431.904,342.132 430.5,355.5C 423.369,359.468 416.369,363.634 409.5,368C 407.5,368.667 405.5,368.667 403.5,368C 397.846,358.892 395.013,349.059 395,338.5C 403.645,329.443 412.478,320.776 421.5,312.5 Z"/></g>
<g><path style="opacity:1" fill="#837d7d" d="M 274.5,297.5 C 280.328,299.825 285.161,303.491 289,308.5C 293.183,316.01 297.35,323.51 301.5,331C 298.548,336.505 296.382,342.338 295,348.5C 292.46,351.899 289.294,354.232 285.5,355.5C 284.167,355.333 282.833,355.167 281.5,355C 275.83,349.826 270.164,344.659 264.5,339.5C 263.442,325.516 265.942,312.182 272,299.5C 272.995,298.934 273.828,298.267 274.5,297.5 Z"/></g>
<g><path style="opacity:1" fill="#837d7d" d="M 323.5,293.5 C 327.08,292.923 330.08,293.923 332.5,296.5C 334.495,301.16 336.995,305.494 340,309.5C 341.284,316.186 343.451,322.52 346.5,328.5C 342.162,338.55 335.496,346.55 326.5,352.5C 322.656,351.166 319.489,348.832 317,345.5C 312.589,340.496 309.089,334.996 306.5,329C 310.886,318.649 315.053,308.149 319,297.5C 320.397,295.93 321.897,294.596 323.5,293.5 Z"/></g>
<g><path style="opacity:1" fill="#847d7d" d="M 373.5,298.5 C 375.92,298.292 378.253,298.626 380.5,299.5C 381.216,301.482 382.383,303.149 384,304.5C 385.838,315.022 387.672,325.522 389.5,336C 389.227,338.151 388.561,340.151 387.5,342C 382.457,346.712 377.123,351.045 371.5,355C 367.058,356.378 363.558,355.212 361,351.5C 357.896,344.338 354.729,337.338 351.5,330.5C 351.621,329.106 351.954,327.772 352.5,326.5C 356.488,321.201 359.988,315.534 363,309.5C 365.901,305.224 369.401,301.558 373.5,298.5 Z"/></g>
<g><path style="opacity:1" fill="#d8d4cf" d="M 694.5,462.5 C 694.5,461.833 694.833,461.5 695.5,461.5C 696.498,495.329 696.832,529.329 696.5,563.5C 695.833,529.833 695.167,496.167 694.5,462.5 Z"/></g>
<g><path style="opacity:1" fill="#766e65" d="M 695.5,461.5 C 695.5,460.833 695.833,460.5 696.5,460.5C 697.498,494.663 697.832,528.996 697.5,563.5C 697.167,563.5 696.833,563.5 696.5,563.5C 696.832,529.329 696.498,495.329 695.5,461.5 Z"/></g>
<g><path style="opacity:1" fill="#847d7d" d="M 98.5,534.5 C 107.16,539.17 115.16,544.836 122.5,551.5C 123.647,553.765 123.814,556.098 123,558.5C 116.717,565.627 109.217,570.961 100.5,574.5C 89.6892,571.425 79.3559,567.258 69.5,562C 65.9904,560.093 64.8238,557.26 66,553.5C 70.3579,546.818 76.5246,542.985 84.5,542C 89.218,539.499 93.8846,536.999 98.5,534.5 Z"/></g>
<g><path style="opacity:1" fill="#847d7d" d="M 550.5,535.5 C 555.31,536.095 559.976,537.262 564.5,539C 569.977,542.737 575.977,545.403 582.5,547C 584.241,548.62 586.075,550.12 588,551.5C 588.814,553.902 588.647,556.235 587.5,558.5C 582.81,563.338 577.143,566.171 570.5,567C 565.678,569.576 560.678,571.909 555.5,574C 553.5,574.667 551.5,574.667 549.5,574C 544.515,570.171 539.515,566.338 534.5,562.5C 531.789,560.287 530.122,557.454 529.5,554C 530.764,550.814 532.764,548.148 535.5,546C 540.951,542.959 545.951,539.459 550.5,535.5 Z"/></g>
<g><path style="opacity:1" fill="#837e7e" d="M 521.5,517.5 C 528.056,525.132 536.39,530.299 546.5,533C 539.598,536.724 533.431,541.558 528,547.5C 524.407,552.759 524.74,557.759 529,562.5C 534.202,567.847 540.035,572.347 546.5,576C 540.071,579.144 533.738,582.477 527.5,586C 522.919,589.438 521.419,593.938 523,599.5C 527.736,606.058 532.236,612.725 536.5,619.5C 529.492,621.169 522.492,623.002 515.5,625C 512.926,626.737 510.926,628.904 509.5,631.5C 515.525,613.581 520.025,595.247 523,576.5C 523.938,556.784 523.438,537.117 521.5,517.5 Z"/></g>
<g><path style="opacity:1" fill="#85807f" d="M 65.5,502.5 C 65.3367,504.857 65.5034,507.19 66,509.5C 69.0209,512.686 71.8542,516.02 74.5,519.5C 80.4688,522.486 86.1355,525.986 91.5,530C 92.448,530.483 93.448,530.649 94.5,530.5C 94.5,531.5 94.5,532.5 94.5,533.5C 90.5073,534.535 86.5073,535.702 82.5,537C 80.1581,537.836 78.1581,539.17 76.5,541C 73.4245,541.346 70.4245,542.012 67.5,543C 65.7803,545.803 63.6136,548.303 61,550.5C 60.3333,553.167 60.3333,555.833 61,558.5C 62.8274,561.16 64.9941,563.494 67.5,565.5C 76.8546,570.42 86.5212,574.587 96.5,578C 95.1667,579.333 93.8333,580.667 92.5,582C 82.3006,586.079 73.4672,592.246 66,600.5C 65.5045,602.473 65.3379,604.473 65.5,606.5C 60.991,588.796 58.991,570.629 59.5,552C 59.4179,537.071 60.5846,522.238 63,507.5C 63.9853,505.825 64.8186,504.158 65.5,502.5 Z"/></g>
<g><path style="opacity:1" fill="#837e7d" d="M 131.5,517.5 C 125.431,556.001 129.431,593.334 143.5,629.5C 134.895,624.614 125.729,621.281 116,619.5C 115.333,618.833 115.333,618.167 116,617.5C 122.419,612.648 127.419,606.648 131,599.5C 132.28,593.397 130.28,588.73 125,585.5C 118.973,582.069 112.806,579.069 106.5,576.5C 108.667,575.052 111,573.885 113.5,573C 115.539,570.626 117.872,568.626 120.5,567C 127.339,562.173 129.006,556.007 125.5,548.5C 119.175,542.892 112.508,537.725 105.5,533C 110.126,532.094 114.46,530.427 118.5,528C 121.166,525.665 124.166,523.831 127.5,522.5C 128.489,520.414 129.822,518.747 131.5,517.5 Z"/></g>
<g><path style="opacity:1" fill="#837e7d" d="M 587.5,497.5 C 593.092,523.081 594.926,549.081 593,575.5C 591.725,586.748 589.892,597.748 587.5,608.5C 587.961,604.491 587.128,600.824 585,597.5C 576.348,590.693 567.514,584.026 558.5,577.5C 568.178,573.759 577.511,569.426 586.5,564.5C 592.242,560.957 593.909,555.957 591.5,549.5C 588.978,547.144 586.312,544.977 583.5,543C 575.369,539.132 567.036,535.799 558.5,533C 558.167,532.667 557.833,532.333 557.5,532C 558.916,529.735 560.916,528.569 563.5,528.5C 563.5,527.5 563.5,526.5 563.5,525.5C 574.45,522.358 582.784,515.858 588.5,506C 587.556,503.281 587.223,500.448 587.5,497.5 Z"/></g>
<g><path style="opacity:1" fill="#847d7d" d="M 100.5,579.5 C 103.89,580.023 107.223,580.857 110.5,582C 114.141,584.803 118.141,586.97 122.5,588.5C 124.754,590.249 126.42,592.416 127.5,595C 126.755,597.992 125.588,600.826 124,603.5C 118.934,608.566 113.934,613.566 109,618.5C 100.023,617.361 91.1901,615.861 82.5,614C 67.2438,611.195 65.5771,604.862 77.5,595C 85.3648,589.94 93.0315,584.774 100.5,579.5 Z"/></g>
<g><path style="opacity:1" fill="#847d7d" d="M 546.5,580.5 C 548.857,580.337 551.19,580.503 553.5,581C 564.717,586.01 574.551,592.843 583,601.5C 583.46,604.304 582.96,606.971 581.5,609.5C 574.988,612.305 568.321,614.471 561.5,616C 554.813,617.306 548.147,617.472 541.5,616.5C 537.482,612.647 533.315,608.981 529,605.5C 528.116,602.065 526.949,598.732 525.5,595.5C 526.013,592.981 527.346,590.981 529.5,589.5C 535.472,586.685 541.139,583.685 546.5,580.5 Z"/></g>
<g><path style="opacity:1" fill="#837e7d" d="M 587.5,609.5 C 583.606,626.404 578.773,643.071 573,659.5C 572.617,660.056 572.117,660.389 571.5,660.5C 573.085,655.359 572.752,650.359 570.5,645.5C 563.896,637.227 556.563,629.561 548.5,622.5C 555.821,621.065 563.154,619.565 570.5,618C 576.97,616.679 582.636,613.846 587.5,609.5 Z"/></g>
<g><path style="opacity:1" fill="#837d7d" d="M 66.5,612.5 C 78.7425,617.244 91.4091,620.577 104.5,622.5C 96.5383,629.629 89.0383,637.296 82,645.5C 79.8951,648.107 79.0617,651.107 79.5,654.5C 78.1077,652.727 76.941,650.727 76,648.5C 71.9353,636.714 68.7686,624.714 66.5,612.5 Z"/></g>
<g><path style="opacity:1" fill="#847d7d" d="M 533.5,623.5 C 537.182,623.335 540.848,623.501 544.5,624C 551.36,630.86 558.194,637.694 565,644.5C 567.099,648.017 568.599,651.684 569.5,655.5C 568.167,655.5 566.833,655.5 565.5,655.5C 565.5,656.5 565.5,657.5 565.5,658.5C 552.52,659.777 539.52,659.777 526.5,658.5C 522.078,652.904 518.245,646.904 515,640.5C 511.992,634.695 513.492,630.528 519.5,628C 524.401,626.802 529.068,625.302 533.5,623.5 Z"/></g>
<g><path style="opacity:1" fill="#837d7d" d="M 108.5,623.5 C 115.986,623.692 123.32,624.859 130.5,627C 133.698,627.848 136.531,629.348 139,631.5C 139.667,633.833 139.667,636.167 139,638.5C 135.25,643.737 132.25,649.403 130,655.5C 128.431,656.938 126.931,658.438 125.5,660C 115.5,660.667 105.5,660.667 95.5,660C 90.7315,659.705 86.7315,657.872 83.5,654.5C 84.903,651.125 86.403,647.791 88,644.5C 95.7761,638.151 102.609,631.151 108.5,623.5 Z"/></g>
<g><path style="opacity:1" fill="#827e7d" d="M 509.5,631.5 C 509.726,634.249 509.393,636.916 508.5,639.5C 509.5,640.167 510.5,640.833 511.5,641.5C 514.801,647.146 518.135,652.813 521.5,658.5C 513.172,659.375 504.838,660.208 496.5,661C 494.804,662.176 493.138,663.343 491.5,664.5C 497.254,653.323 503.254,642.323 509.5,631.5 Z"/></g>
<g><path style="opacity:1" fill="#837e7d" d="M 143.5,629.5 C 148.641,640.677 154.308,651.677 160.5,662.5C 157.579,661.519 154.579,660.685 151.5,660C 145.141,659.831 138.807,659.331 132.5,658.5C 139.53,650.074 143.196,640.407 143.5,629.5 Z"/></g>
<g><path style="opacity:1" fill="#847d7d" d="M 127.5,663.5 C 135.507,663.334 143.507,663.5 151.5,664C 153.626,664.898 155.626,666.065 157.5,667.5C 158.833,671.5 158.833,675.5 157.5,679.5C 154.64,684.883 152.64,690.549 151.5,696.5C 139.932,699.309 128.265,701.642 116.5,703.5C 113.363,703.949 110.863,702.949 109,700.5C 108.949,696.843 109.282,693.177 110,689.5C 114.264,682.898 118.931,676.564 124,670.5C 124.955,667.996 126.122,665.663 127.5,663.5 Z"/></g>
<g><path style="opacity:1" fill="#847e7e" d="M 81.5,660.5 C 84.5559,661.296 87.5559,662.296 90.5,663.5C 100.833,664.167 111.167,664.833 121.5,665.5C 116.323,673.196 111.156,680.863 106,688.5C 104.775,693.085 104.275,697.752 104.5,702.5C 95.0756,689.534 87.4089,675.534 81.5,660.5 Z"/></g>
<g><path style="opacity:1" fill="#847d7d" d="M 505.5,663.5 C 512.615,663.075 519.615,663.575 526.5,665C 532.512,673.343 538.345,681.843 544,690.5C 545.043,693.757 545.543,697.09 545.5,700.5C 542.313,701.752 538.98,702.418 535.5,702.5C 524.643,701.452 513.976,699.452 503.5,696.5C 498.873,688.164 495.54,679.331 493.5,670C 495.167,668.333 496.833,666.667 498.5,665C 501.036,664.814 503.369,664.314 505.5,663.5 Z"/></g>
<g><path style="opacity:1" fill="#847e7e" d="M 571.5,660.5 C 565.846,675.131 558.513,688.798 549.5,701.5C 549.464,697.021 548.631,692.688 547,688.5C 541.85,680.88 536.683,673.213 531.5,665.5C 543.5,664.833 555.5,664.167 567.5,663.5C 568.922,662.602 570.255,661.602 571.5,660.5 Z"/></g>
<g><path style="opacity:1" fill="#c8c5c5" d="M 491.5,444.5 C 491.5,444.833 491.5,445.167 491.5,445.5C 505.235,468.064 515.235,492.064 521.5,517.5C 523.438,537.117 523.938,556.784 523,576.5C 520.025,595.247 515.525,613.581 509.5,631.5C 503.254,642.323 497.254,653.323 491.5,664.5C 483.256,675.585 474.422,686.251 465,696.5C 455.89,704.789 446.39,712.456 436.5,719.5C 425.625,725.77 414.625,731.77 403.5,737.5C 402.508,737.328 401.842,737.662 401.5,738.5C 387.343,742.907 373.009,746.74 358.5,750C 336.17,753.291 313.837,753.291 291.5,750C 278.114,746.481 264.781,742.648 251.5,738.5C 239.642,732.672 227.976,726.338 216.5,719.5C 205.582,711.423 195.082,702.756 185,693.5C 176.589,683.267 168.422,672.934 160.5,662.5C 154.308,651.677 148.641,640.677 143.5,629.5C 129.431,593.334 125.431,556.001 131.5,517.5C 131.5,517.167 131.5,516.833 131.5,516.5C 136.16,502.231 140.993,487.898 146,473.5C 150.673,464.146 155.84,455.146 161.5,446.5C 161.557,445.391 161.89,444.391 162.5,443.5C 169.428,434.565 176.762,425.898 184.5,417.5C 184.833,416.5 185.5,415.833 186.5,415.5C 215.446,387.695 249.446,369.362 288.5,360.5C 289.492,360.672 290.158,360.338 290.5,359.5C 374.338,349.282 441.338,377.615 491.5,444.5 Z"/></g>
<g><path style="opacity:1" fill="#1b1b1b" d="M 201.5,641.5 C 204.68,641.176 205.847,642.51 205,645.5C 196.969,652.7 189.136,660.033 181.5,667.5C 179.623,666.341 179.123,664.674 180,662.5C 185.008,658.323 189.841,653.99 194.5,649.5C 193.833,649.167 193.167,648.833 192.5,648.5C 186.357,650.577 180.19,652.577 174,654.5C 172.124,653.381 171.291,651.714 171.5,649.5C 181.767,647.435 191.767,644.768 201.5,641.5 Z"/></g>
<g><path style="opacity:1" fill="#e2e1e1" d="M 193.5,625.5 C 194.126,626.529 194.959,627.529 196,628.5C 197.085,626.343 198.251,626.176 199.5,628C 199.296,630.621 199.296,633.455 199.5,636.5C 200.833,636.5 202.167,636.5 203.5,636.5C 203.5,637.5 203.5,638.5 203.5,639.5C 202.325,639.281 201.325,639.614 200.5,640.5C 200.624,641.107 200.957,641.44 201.5,641.5C 191.767,644.768 181.767,647.435 171.5,649.5C 171.291,651.714 172.124,653.381 174,654.5C 180.19,652.577 186.357,650.577 192.5,648.5C 193.167,648.833 193.833,649.167 194.5,649.5C 189.841,653.99 185.008,658.323 180,662.5C 179.123,664.674 179.623,666.341 181.5,667.5C 180.458,668.791 179.292,668.791 178,667.5C 177.667,665.5 177.333,663.5 177,661.5C 176.605,664.207 176.105,666.873 175.5,669.5C 166.886,659.208 159.886,647.874 154.5,635.5C 156.433,636.642 157.933,638.308 159,640.5C 160.364,639.742 161.531,640.242 162.5,642C 162.167,642.333 161.833,642.667 161.5,643C 164.053,644.656 166.719,644.823 169.5,643.5C 168,645.509 168.5,646.842 171,647.5C 180.76,643.042 189.926,637.709 198.5,631.5C 198.113,630.28 197.28,629.613 196,629.5C 187.248,633.791 178.748,638.458 170.5,643.5C 170.843,641.517 170.176,640.183 168.5,639.5C 176.341,634.077 184.674,629.41 193.5,625.5 Z"/></g>
<g><path style="opacity:1" fill="#181818" d="M 169.5,643.5 C 169.833,643.5 170.167,643.5 170.5,643.5C 178.748,638.458 187.248,633.791 196,629.5C 197.28,629.613 198.113,630.28 198.5,631.5C 189.926,637.709 180.76,643.042 171,647.5C 168.5,646.842 168,645.509 169.5,643.5 Z"/></g>
<g><path style="opacity:1" fill="#eceaea" d="M 418.5,393.5 C 413.957,402.721 408.957,411.721 403.5,420.5C 403.887,421.72 404.72,422.387 406,422.5C 412.321,413.87 418.154,404.87 423.5,395.5C 423.137,394.817 422.804,394.15 422.5,393.5C 423.251,392.427 424.251,392.26 425.5,393C 478.266,426.322 508.433,474.156 516,536.5C 517.823,561.271 515.489,585.604 509,609.5C 481.058,688.743 425.225,733.91 341.5,745C 289.166,748.112 243.166,733.112 203.5,700C 198.003,694.206 192.17,688.706 186,683.5C 181.898,679.239 178.398,674.572 175.5,669.5C 176.105,666.873 176.605,664.207 177,661.5C 177.333,663.5 177.667,665.5 178,667.5C 179.292,668.791 180.458,668.791 181.5,667.5C 189.136,660.033 196.969,652.7 205,645.5C 205.847,642.51 204.68,641.176 201.5,641.5C 200.957,641.44 200.624,641.107 200.5,640.5C 201.325,639.614 202.325,639.281 203.5,639.5C 203.5,638.5 203.5,637.5 203.5,636.5C 202.167,636.5 200.833,636.5 199.5,636.5C 199.296,633.455 199.296,630.621 199.5,628C 198.251,626.176 197.085,626.343 196,628.5C 194.959,627.529 194.126,626.529 193.5,625.5C 194.653,624.687 194.653,623.687 193.5,622.5C 192.277,621.386 190.944,621.219 189.5,622C 183.79,625.855 177.79,629.188 171.5,632C 168.725,633.374 166.392,635.207 164.5,637.5C 164.861,640.348 166.194,641.014 168.5,639.5C 170.176,640.183 170.843,641.517 170.5,643.5C 170.167,643.5 169.833,643.5 169.5,643.5C 166.719,644.823 164.053,644.656 161.5,643C 161.833,642.667 162.167,642.333 162.5,642C 161.531,640.242 160.364,639.742 159,640.5C 157.933,638.308 156.433,636.642 154.5,635.5C 129.189,577.539 130.689,520.205 159,463.5C 201.447,394.02 263.614,361.52 345.5,366C 360.219,367.21 374.552,370.21 388.5,375C 399.44,379.722 410.273,384.556 421,389.5C 420.501,390.894 419.667,392.228 418.5,393.5 Z"/></g>
<g><path style="opacity:1" fill="#8a8788" d="M 474.5,637.5 C 477.152,637.41 479.485,638.076 481.5,639.5C 478.848,639.59 476.515,638.924 474.5,637.5 Z"/></g>
<g><path style="opacity:1" fill="#939393" d="M 468.5,635.5 C 470.898,635.259 472.898,635.926 474.5,637.5C 472.102,637.741 470.102,637.074 468.5,635.5 Z"/></g>
<g><path style="opacity:1" fill="#151415" d="M 468.5,635.5 C 470.102,637.074 472.102,637.741 474.5,637.5C 476.515,638.924 478.848,639.59 481.5,639.5C 484.057,640.485 486.724,641.485 489.5,642.5C 489.081,643.672 488.415,644.672 487.5,645.5C 480.896,643.414 474.229,641.914 467.5,641C 472.348,646.015 477.348,650.848 482.5,655.5C 481.855,656.646 481.022,657.646 480,658.5C 473,652.167 466,645.833 459,639.5C 457.441,637.783 456.608,635.783 456.5,633.5C 460.538,633.958 464.538,634.624 468.5,635.5 Z"/></g>
<g><path style="opacity:1" fill="#191819" d="M 193.5,625.5 C 184.674,629.41 176.341,634.077 168.5,639.5C 166.194,641.014 164.861,640.348 164.5,637.5C 166.392,635.207 168.725,633.374 171.5,632C 177.79,629.188 183.79,625.855 189.5,622C 190.944,621.219 192.277,621.386 193.5,622.5C 194.653,623.687 194.653,624.687 193.5,625.5 Z"/></g>
<g><path style="opacity:1" fill="#1b1b1b" d="M 464.5,618.5 C 472.951,623.563 481.618,628.396 490.5,633C 492.612,633.906 493.445,635.406 493,637.5C 491.951,638.517 490.784,638.684 489.5,638C 481.996,633.413 474.329,629.08 466.5,625C 463.408,623.541 462.742,621.374 464.5,618.5 Z"/></g>
<g><path style="opacity:1" fill="#1b1a1a" d="M 185.5,613.5 C 188.932,613.248 189.932,614.581 188.5,617.5C 179.339,622.246 170.339,627.246 161.5,632.5C 158.645,630.164 158.978,628.331 162.5,627C 170.23,622.474 177.896,617.974 185.5,613.5 Z"/></g>
<g><path style="opacity:1" fill="#8f8f8f" d="M 305.5,575.5 C 306.568,574.566 307.901,574.232 309.5,574.5C 308.949,577.807 308.616,581.14 308.5,584.5C 307.224,581.97 307.224,579.303 308.5,576.5C 307.675,575.614 306.675,575.281 305.5,575.5 Z"/></g>
<g><path style="opacity:1" fill="#302f2f" d="M 142.5,565.5 C 153.5,565.5 164.5,565.5 175.5,565.5C 175.5,566.833 175.5,568.167 175.5,569.5C 164.5,569.5 153.5,569.5 142.5,569.5C 142.5,568.167 142.5,566.833 142.5,565.5 Z"/></g>
<g><path style="opacity:1" fill="#050404" d="M 143.5,566.5 C 153.855,566.168 164.188,566.501 174.5,567.5C 169.333,567.833 164.167,568.167 159,568.5C 153.454,568.495 148.288,567.828 143.5,566.5 Z"/></g>
<g><path style="opacity:1" fill="#5b5a5a" d="M 477.5,562.5 C 488.321,561.505 499.321,561.172 510.5,561.5C 510.5,563.167 510.5,564.833 510.5,566.5C 499.321,566.828 488.321,566.495 477.5,565.5C 488.167,565.5 498.833,565.5 509.5,565.5C 509.5,564.5 509.5,563.5 509.5,562.5C 498.833,562.5 488.167,562.5 477.5,562.5 Z"/></g>
<g><path style="opacity:1" fill="#0a0909" d="M 477.5,562.5 C 488.167,562.5 498.833,562.5 509.5,562.5C 509.5,563.5 509.5,564.5 509.5,565.5C 498.833,565.5 488.167,565.5 477.5,565.5C 477.5,564.5 477.5,563.5 477.5,562.5 Z"/></g>
<g><path style="opacity:1" fill="#505151" d="M 477.5,553.5 C 488.321,552.505 499.321,552.172 510.5,552.5C 510.5,554.167 510.5,555.833 510.5,557.5C 499.321,557.828 488.321,557.495 477.5,556.5C 488.167,556.5 498.833,556.5 509.5,556.5C 509.5,555.5 509.5,554.5 509.5,553.5C 498.833,553.5 488.167,553.5 477.5,553.5 Z"/></g>
<g><path style="opacity:1" fill="#070707" d="M 477.5,553.5 C 488.167,553.5 498.833,553.5 509.5,553.5C 509.5,554.5 509.5,555.5 509.5,556.5C 498.833,556.5 488.167,556.5 477.5,556.5C 477.5,555.5 477.5,554.5 477.5,553.5 Z"/></g>
<g><path style="opacity:1" fill="#dedddd" d="M 343.5,548.5 C 343.297,550.044 342.63,551.378 341.5,552.5C 342.355,553.293 343.189,552.96 344,551.5C 344.333,552.167 344.667,552.833 345,553.5C 345.207,557.089 345.707,560.589 346.5,564C 345.484,564.519 344.818,565.353 344.5,566.5C 345.046,568.135 345.38,569.801 345.5,571.5C 340.346,571.705 335.346,572.705 330.5,574.5C 329.604,573.494 328.938,573.494 328.5,574.5C 329.602,575.176 330.602,575.842 331.5,576.5C 330.325,576.281 329.325,576.614 328.5,577.5C 329.853,578.524 330.52,579.857 330.5,581.5C 328.089,581.863 326.589,580.863 326,578.5C 325.262,574.739 325.595,571.072 327,567.5C 335.521,565.152 339.688,559.485 339.5,550.5C 340.622,549.37 341.956,548.703 343.5,548.5 Z"/></g>
<g><path style="opacity:1" fill="#585758" d="M 477.5,544.5 C 488.321,543.505 499.321,543.172 510.5,543.5C 510.5,545.167 510.5,546.833 510.5,548.5C 499.321,548.828 488.321,548.495 477.5,547.5C 488.167,547.5 498.833,547.5 509.5,547.5C 509.5,546.5 509.5,545.5 509.5,544.5C 498.833,544.5 488.167,544.5 477.5,544.5 Z"/></g>
<g><path style="opacity:1" fill="#030202" d="M 477.5,544.5 C 488.167,544.5 498.833,544.5 509.5,544.5C 509.5,545.5 509.5,546.5 509.5,547.5C 498.833,547.5 488.167,547.5 477.5,547.5C 477.5,546.5 477.5,545.5 477.5,544.5 Z"/></g>
<g><path style="opacity:1" fill="#1a1919" d="M 142.5,542.5 C 147.926,544.627 153.426,546.627 159,548.5C 164.373,546.06 169.873,544.06 175.5,542.5C 175.762,543.978 175.429,545.311 174.5,546.5C 171.272,547.943 168.272,549.61 165.5,551.5C 168.404,554.081 171.737,555.748 175.5,556.5C 175.785,558.288 175.452,559.955 174.5,561.5C 169.291,559.264 164.125,556.93 159,554.5C 153.673,556.55 148.506,558.884 143.5,561.5C 142.167,559.833 142.167,558.167 143.5,556.5C 146.348,554.576 149.348,552.909 152.5,551.5C 149.779,549.473 146.779,547.973 143.5,547C 142.62,545.644 142.286,544.144 142.5,542.5 Z"/></g>
<g><path style="opacity:1" fill="#dddddd" d="M 386.5,535.5 C 382.808,533.224 381.808,530.057 383.5,526C 385.235,525.349 386.902,525.515 388.5,526.5C 389.527,521.05 387.193,519.216 381.5,521C 380.033,523.728 378.033,524.561 375.5,523.5C 375.281,522.325 375.614,521.325 376.5,520.5C 383.771,515.283 390.937,515.283 398,520.5C 401.235,530.776 397.402,535.776 386.5,535.5 Z"/></g>
<g><path style="opacity:1" fill="#464445" d="M 336.5,489.5 C 336.23,494.45 335.23,499.117 333.5,503.5C 333.77,498.55 334.77,493.883 336.5,489.5 Z"/></g>
<g><path style="opacity:1" fill="#dddcdd" d="M 372.5,518.5 C 374.112,516.702 375.612,514.702 377,512.5C 378.168,509.107 377.334,506.441 374.5,504.5C 373.692,506.423 373.192,508.423 373,510.5C 369.516,512.04 367.016,511.04 365.5,507.5C 364.489,498.343 368.489,494.51 377.5,496C 379.848,496.346 381.681,497.513 383,499.5C 384.292,507.422 381.792,513.922 375.5,519C 374.423,519.47 373.423,519.303 372.5,518.5 Z"/></g>
<g><path style="opacity:1" fill="#1c1c1c" d="M 384.5,539.5 C 388.048,539.905 391.381,539.405 394.5,538C 391.834,536.939 389.167,536.106 386.5,535.5C 397.402,535.776 401.235,530.776 398,520.5C 390.937,515.283 383.771,515.283 376.5,520.5C 375.614,521.325 375.281,522.325 375.5,523.5C 374.36,521.955 373.36,520.288 372.5,518.5C 373.423,519.303 374.423,519.47 375.5,519C 381.792,513.922 384.292,507.422 383,499.5C 381.681,497.513 379.848,496.346 377.5,496C 368.489,494.51 364.489,498.343 365.5,507.5C 364.679,504.359 364.179,501.025 364,497.5C 363.292,498.381 362.458,499.047 361.5,499.5C 364.867,492.155 370.534,489.655 378.5,492C 379.5,492.5 380.5,493 381.5,493.5C 383.911,488.709 387.578,487.376 392.5,489.5C 393.833,491.167 393.833,492.833 392.5,494.5C 388.59,490.214 386.424,490.881 386,496.5C 388.909,499.394 392.409,500.227 396.5,499C 404.693,496.237 412.36,492.403 419.5,487.5C 419.833,487.833 420.167,488.167 420.5,488.5C 412.431,494.068 405.931,501.068 401,509.5C 400.333,512.167 400.333,514.833 401,517.5C 402.667,518.833 404.333,518.833 406,517.5C 406.18,515.512 406.014,513.512 405.5,511.5C 410.151,512.174 411.651,514.841 410,519.5C 408.491,521.919 406.325,522.919 403.5,522.5C 403.509,535.845 397.176,541.512 384.5,539.5 Z"/></g>
<g><path style="opacity:1" fill="#dbdbdb" d="M 401.5,499.5 C 402.552,499.351 403.552,499.517 404.5,500C 399.893,503.771 397.227,508.604 396.5,514.5C 392.5,514.5 388.5,514.5 384.5,514.5C 385.793,510.616 386.459,506.616 386.5,502.5C 391.927,503.018 396.927,502.018 401.5,499.5 Z"/></g>
<g><path style="opacity:1" fill="#858485" d="M 338.5,477.5 C 338.706,480.495 338.04,483.162 336.5,485.5C 336.565,482.572 337.232,479.905 338.5,477.5 Z"/></g>
<g><path style="opacity:1" fill="#1a191a" d="M 486.5,466.5 C 488.741,467.3 489.741,468.966 489.5,471.5C 482.333,474.417 475.333,477.917 468.5,482C 465.691,483.741 462.691,484.908 459.5,485.5C 459.393,483.097 460.393,481.264 462.5,480C 470.692,475.74 478.692,471.24 486.5,466.5 Z"/></g>
<g><path style="opacity:1" fill="#565656" d="M 340.5,470.5 C 340.59,473.152 339.924,475.485 338.5,477.5C 338.41,474.848 339.076,472.515 340.5,470.5 Z"/></g>
<g><path style="opacity:1" fill="#6a6969" d="M 163.5,469.5 C 165.508,471.083 167.841,472.083 170.5,472.5C 167.833,472.5 165.167,472.5 162.5,472.5C 162.263,471.209 162.596,470.209 163.5,469.5 Z"/></g>
<g><path style="opacity:1" fill="#1b1a1a" d="M 170.5,472.5 C 167.841,472.083 165.508,471.083 163.5,469.5C 164.134,468.053 165.301,467.387 167,467.5C 170.194,468.603 173.361,468.603 176.5,467.5C 175.077,463.922 173.077,460.756 170.5,458C 170.78,456.605 171.447,455.438 172.5,454.5C 176.312,458.777 179.645,463.443 182.5,468.5C 188.588,469.345 194.588,470.511 200.5,472C 200.043,472.414 199.709,472.914 199.5,473.5C 195.5,474.167 191.5,474.833 187.5,475.5C 189,477.833 190.5,480.167 192,482.5C 192.635,484.635 192.301,486.635 191,488.5C 187.638,483.97 184.471,479.303 181.5,474.5C 177.867,473.588 174.2,472.921 170.5,472.5 Z"/></g>
<g><path style="opacity:1" fill="#181717" d="M 481.5,458.5 C 485.029,459.609 485.362,461.442 482.5,464C 473.682,467.906 465.348,472.573 457.5,478C 454.269,477.155 453.936,475.488 456.5,473C 465.191,468.659 473.525,463.825 481.5,458.5 Z"/></g>
<g><path style="opacity:1" fill="#121212" d="M 340.5,499.5 C 339.087,502.219 338.42,505.219 338.5,508.5C 338.5,509.833 338.5,511.167 338.5,512.5C 337.076,514.515 336.41,516.848 336.5,519.5C 334.742,527.009 333.075,534.675 331.5,542.5C 331.434,544.266 332.268,545.266 334,545.5C 344.728,537.55 355.561,529.716 366.5,522C 367.774,521.023 367.774,520.189 366.5,519.5C 366.66,517.801 366.494,516.134 366,514.5C 365.329,513.748 364.496,513.414 363.5,513.5C 360.566,509.074 359.899,504.407 361.5,499.5C 362.458,499.047 363.292,498.381 364,497.5C 364.179,501.025 364.679,504.359 365.5,507.5C 367.016,511.04 369.516,512.04 373,510.5C 373.192,508.423 373.692,506.423 374.5,504.5C 377.334,506.441 378.168,509.107 377,512.5C 375.612,514.702 374.112,516.702 372.5,518.5C 373.36,520.288 374.36,521.955 375.5,523.5C 378.033,524.561 380.033,523.728 381.5,521C 387.193,519.216 389.527,521.05 388.5,526.5C 386.902,525.515 385.235,525.349 383.5,526C 381.808,530.057 382.808,533.224 386.5,535.5C 389.167,536.106 391.834,536.939 394.5,538C 391.381,539.405 388.048,539.905 384.5,539.5C 382.229,537.734 380.063,535.734 378,533.5C 377.517,532.552 377.351,531.552 377.5,530.5C 375.063,529.613 372.73,528.78 370.5,528C 361.072,534.368 352.072,541.202 343.5,548.5C 341.956,548.703 340.622,549.37 339.5,550.5C 339.688,559.485 335.521,565.152 327,567.5C 325.595,571.072 325.262,574.739 326,578.5C 326.589,580.863 328.089,581.863 330.5,581.5C 330.52,579.857 329.853,578.524 328.5,577.5C 329.325,576.614 330.325,576.281 331.5,576.5C 332.88,576.962 333.547,577.962 333.5,579.5C 332.892,582.145 332.392,584.812 332,587.5C 330.312,589.848 328.478,590.015 326.5,588C 327.91,587.632 328.91,586.799 329.5,585.5C 327.865,584.319 326.198,584.319 324.5,585.5C 321.816,588.869 319.649,592.536 318,596.5C 317.774,592.113 317.274,587.779 316.5,583.5C 315.167,582.167 313.833,582.167 312.5,583.5C 313.879,584.863 313.713,585.863 312,586.5C 310.541,586.192 309.374,585.525 308.5,584.5C 308.616,581.14 308.949,577.807 309.5,574.5C 307.901,574.232 306.568,574.566 305.5,575.5C 301.781,576.47 298.114,577.304 294.5,578C 297.719,574.448 300.552,570.615 303,566.5C 304.238,563.074 303.071,561.408 299.5,561.5C 299.895,564.523 298.895,565.523 296.5,564.5C 295.386,563.277 295.219,561.944 296,560.5C 299.492,558.344 302.826,556.011 306,553.5C 309.082,553.748 310.582,555.415 310.5,558.5C 309.07,558.579 307.736,558.246 306.5,557.5C 305.269,558.651 305.269,559.817 306.5,561C 308.899,561.711 311.232,561.544 313.5,560.5C 313.883,555.872 315.05,551.538 317,547.5C 319.43,544.786 322.43,543.119 326,542.5C 327.718,529.303 330.218,516.303 333.5,503.5C 335.23,499.117 336.23,494.45 336.5,489.5C 336.5,488.167 336.5,486.833 336.5,485.5C 338.04,483.162 338.706,480.495 338.5,477.5C 339.924,475.485 340.59,473.152 340.5,470.5C 340.5,469.167 340.5,467.833 340.5,466.5C 336.985,465.206 333.318,464.372 329.5,464C 327.536,462.549 326.203,460.716 325.5,458.5C 325.369,457.761 325.536,457.094 326,456.5C 326.671,457.252 327.504,457.586 328.5,457.5C 329.365,459.677 331.032,460.677 333.5,460.5C 335.355,460.66 336.688,459.993 337.5,458.5C 338.158,457.602 338.824,456.602 339.5,455.5C 340.724,457.828 340.724,460.161 339.5,462.5C 340.958,463.782 342.292,463.782 343.5,462.5C 344.644,458.648 344.644,454.648 343.5,450.5C 344.167,450.833 344.833,451.167 345.5,451.5C 345.281,452.675 345.614,453.675 346.5,454.5C 347.429,453.45 348.095,453.45 348.5,454.5C 346.647,457.208 345.647,460.208 345.5,463.5C 346.5,463.5 347.5,463.5 348.5,463.5C 348.479,458.279 351.146,455.946 356.5,456.5C 357.404,457.209 357.737,458.209 357.5,459.5C 356.167,459.5 354.833,459.5 353.5,459.5C 352.873,462.864 354.206,464.864 357.5,465.5C 366.804,461.862 367.804,456.696 360.5,450C 358.866,449.506 357.199,449.34 355.5,449.5C 355.157,447.517 355.824,446.183 357.5,445.5C 359.948,445.99 361.615,445.157 362.5,443C 361.768,441.235 360.435,440.068 358.5,439.5C 365.587,438.421 367.253,441.088 363.5,447.5C 368.242,451.42 369.742,456.42 368,462.5C 363.948,469.289 358.448,470.956 351.5,467.5C 349.775,468.015 348.108,468.682 346.5,469.5C 344.628,479.527 342.628,489.527 340.5,499.5 Z"/></g>
<g><path style="opacity:1" fill="#cecece" d="M 321.5,575.5 C 323.229,576.953 324.229,578.953 324.5,581.5C 322.808,583.359 321.308,585.359 320,587.5C 319.627,585.302 319.127,583.135 318.5,581C 319.741,579.269 320.741,577.436 321.5,575.5 Z"/></g>
<g><path style="opacity:1" fill="#d4d4d4" d="M 318.5,565.5 C 319.649,565.791 320.316,566.624 320.5,568C 319.382,570.059 318.715,572.226 318.5,574.5C 317.5,574.5 316.5,574.5 315.5,574.5C 314.924,570.888 315.924,567.888 318.5,565.5 Z"/></g>
<g><path style="opacity:1" fill="#e1e3e2" d="M 306.5,565.5 C 308.5,565.5 310.5,565.5 312.5,565.5C 312.506,568.976 310.84,570.976 307.5,571.5C 306.033,572.292 304.7,572.292 303.5,571.5C 304.883,569.68 305.883,567.68 306.5,565.5 Z"/></g>
<g><path style="opacity:1" fill="#a2a3a2" d="M 306.5,565.5 C 309.024,564.2 311.691,564.2 314.5,565.5C 314.255,570.021 311.922,572.021 307.5,571.5C 310.84,570.976 312.506,568.976 312.5,565.5C 310.5,565.5 308.5,565.5 306.5,565.5 Z"/></g>
<g><path style="opacity:1" fill="#929393" d="M 338.5,512.5 C 338.59,515.152 337.924,517.485 336.5,519.5C 336.41,516.848 337.076,514.515 338.5,512.5 Z"/></g>
<g><path style="opacity:1" fill="#747373" d="M 363.5,513.5 C 364.496,513.414 365.329,513.748 366,514.5C 366.494,516.134 366.66,517.801 366.5,519.5C 365.799,517.412 364.799,515.412 363.5,513.5 Z"/></g>
<g><path style="opacity:1" fill="#666666" d="M 340.5,499.5 C 340.58,502.781 339.913,505.781 338.5,508.5C 338.42,505.219 339.087,502.219 340.5,499.5 Z"/></g>
<g><path style="opacity:1" fill="#b5b5b5" d="M 348.5,454.5 C 348.833,454.5 349.167,454.5 349.5,454.5C 349.369,455.376 349.702,456.043 350.5,456.5C 352.643,455.246 354.643,455.246 356.5,456.5C 351.146,455.946 348.479,458.279 348.5,463.5C 347.5,463.5 346.5,463.5 345.5,463.5C 345.647,460.208 346.647,457.208 348.5,454.5 Z"/></g>
<g><path style="opacity:1" fill="#303030" d="M 343.5,462.5 C 342.292,463.782 340.958,463.782 339.5,462.5C 340.724,460.161 340.724,457.828 339.5,455.5C 338.824,456.602 338.158,457.602 337.5,458.5C 336.952,456.606 335.952,454.94 334.5,453.5C 336.074,452.369 337.741,452.202 339.5,453C 340.698,456.366 342.031,459.532 343.5,462.5 Z"/></g>
<g><path style="opacity:1" fill="#e0dfe0" d="M 355.5,449.5 C 357.199,449.34 358.866,449.506 360.5,450C 367.804,456.696 366.804,461.862 357.5,465.5C 354.206,464.864 352.873,462.864 353.5,459.5C 354.833,459.5 356.167,459.5 357.5,459.5C 357.737,458.209 357.404,457.209 356.5,456.5C 354.643,455.246 352.643,455.246 350.5,456.5C 349.702,456.043 349.369,455.376 349.5,454.5C 350.891,452.11 352.891,450.443 355.5,449.5 Z"/></g>
<g><path style="opacity:1" fill="#e0dfdf" d="M 343.5,450.5 C 344.644,454.648 344.644,458.648 343.5,462.5C 342.031,459.532 340.698,456.366 339.5,453C 337.741,452.202 336.074,452.369 334.5,453.5C 335.952,454.94 336.952,456.606 337.5,458.5C 336.688,459.993 335.355,460.66 333.5,460.5C 331.032,460.677 329.365,459.677 328.5,457.5C 326.302,448.864 329.636,445.031 338.5,446C 340.037,447.707 341.704,449.207 343.5,450.5 Z"/></g>
<g><path style="opacity:1" fill="#2f2d2d" d="M 357.5,445.5 C 355.824,446.183 355.157,447.517 355.5,449.5C 352.891,450.443 350.891,452.11 349.5,454.5C 349.167,454.5 348.833,454.5 348.5,454.5C 348.095,453.45 347.429,453.45 346.5,454.5C 345.614,453.675 345.281,452.675 345.5,451.5C 346.117,451.611 346.617,451.944 347,452.5C 349.409,450.38 351.909,448.38 354.5,446.5C 352.98,444.338 351.98,442.005 351.5,439.5C 351.5,438.833 351.5,438.167 351.5,437.5C 352.833,433.167 352.833,428.833 351.5,424.5C 351.892,422.821 352.392,421.154 353,419.5C 353.333,425.833 353.667,432.167 354,438.5C 354.653,441.139 355.82,443.473 357.5,445.5 Z"/></g>
<g><path style="opacity:1" fill="#dedcdd" d="M 349.5,434.5 C 350.167,436.167 350.833,437.833 351.5,439.5C 351.98,442.005 352.98,444.338 354.5,446.5C 351.909,448.38 349.409,450.38 347,452.5C 346.617,451.944 346.117,451.611 345.5,451.5C 344.949,448.733 343.616,446.4 341.5,444.5C 345.324,442.018 347.991,438.684 349.5,434.5 Z"/></g>
<g><path style="opacity:1" fill="#1f1f1f" d="M 351.5,424.5 C 350.746,427.256 350.746,429.922 351.5,432.5C 350.167,432.5 349.5,433.167 349.5,434.5C 347.991,438.684 345.324,442.018 341.5,444.5C 343.616,446.4 344.949,448.733 345.5,451.5C 344.833,451.167 344.167,450.833 343.5,450.5C 341.704,449.207 340.037,447.707 338.5,446C 329.636,445.031 326.302,448.864 328.5,457.5C 327.504,457.586 326.671,457.252 326,456.5C 325.536,457.094 325.369,457.761 325.5,458.5C 324.883,458.389 324.383,458.056 324,457.5C 323.333,454.5 323.333,451.5 324,448.5C 326.371,445.794 329.037,443.461 332,441.5C 332.29,439.048 332.956,436.715 334,434.5C 336.518,432.972 338.685,433.306 340.5,435.5C 339.271,436.281 337.938,436.781 336.5,437C 335.167,438.333 335.167,439.667 336.5,441C 340.672,441.868 343.838,440.368 346,436.5C 347.609,432.29 349.442,428.29 351.5,424.5 Z"/></g>
<g><path style="opacity:1" fill="#868484" d="M 351.5,432.5 C 351.5,434.167 351.5,435.833 351.5,437.5C 351.5,438.167 351.5,438.833 351.5,439.5C 350.833,437.833 350.167,436.167 349.5,434.5C 349.5,433.167 350.167,432.5 351.5,432.5 Z"/></g>
<g><path style="opacity:1" fill="#100e0f" d="M 351.5,424.5 C 352.833,428.833 352.833,433.167 351.5,437.5C 351.5,435.833 351.5,434.167 351.5,432.5C 350.746,429.922 350.746,427.256 351.5,424.5 Z"/></g>
<g><path style="opacity:1" fill="#949394" d="M 238.5,394.5 C 238.56,393.957 238.893,393.624 239.5,393.5C 240.825,399.427 241.492,405.427 241.5,411.5C 240.303,405.863 239.303,400.196 238.5,394.5 Z"/></g>
<g><path style="opacity:1" fill="#7e7e7e" d="M 235.5,397.5 C 236.643,400.976 236.81,404.642 236,408.5C 235.283,407.956 234.783,407.289 234.5,406.5C 235.477,403.713 235.81,400.713 235.5,397.5 Z"/></g>
<g><path style="opacity:1" fill="#1e1d1d" d="M 244.5,389.5 C 245.496,389.414 246.329,389.748 247,390.5C 252.4,399.726 257.567,409.059 262.5,418.5C 261.15,419.95 259.484,420.617 257.5,420.5C 257.657,419.127 257.49,417.793 257,416.5C 252.413,408.996 248.08,401.329 244,393.5C 243.421,392.072 243.588,390.738 244.5,389.5 Z"/></g>
<g><path style="opacity:1" fill="#151415" d="M 238.5,394.5 C 239.303,400.196 240.303,405.863 241.5,411.5C 245.617,415.396 249.95,419.063 254.5,422.5C 253.672,423.415 252.672,424.081 251.5,424.5C 248.5,422.5 245.5,420.5 242.5,418.5C 241.673,422.459 241.173,426.459 241,430.5C 239.989,431.337 238.822,431.67 237.5,431.5C 237.666,425.824 237.499,420.157 237,414.5C 232.038,410.943 227.205,407.277 222.5,403.5C 223.167,402.167 224.167,401.167 225.5,400.5C 228.042,403.265 231.042,405.265 234.5,406.5C 234.783,407.289 235.283,407.956 236,408.5C 236.81,404.642 236.643,400.976 235.5,397.5C 235.5,395.5 236.5,394.5 238.5,394.5 Z"/></g>
<g><path style="opacity:1" fill="#1b1a1a" d="M 418.5,393.5 C 419.833,393.5 421.167,393.5 422.5,393.5C 422.804,394.15 423.137,394.817 423.5,395.5C 418.154,404.87 412.321,413.87 406,422.5C 404.72,422.387 403.887,421.72 403.5,420.5C 408.957,411.721 413.957,402.721 418.5,393.5 Z"/></g>
<g><path style="opacity:1" fill="#191819" d="M 312.5,371.5 C 314.674,374.515 316.341,377.849 317.5,381.5C 317.897,382.525 318.563,382.692 319.5,382C 321.668,377.301 322.668,377.468 322.5,382.5C 321.569,384.033 320.902,385.7 320.5,387.5C 323.66,392.821 325.994,398.488 327.5,404.5C 325.833,404.5 324.167,404.5 322.5,404.5C 319.5,389.833 316.5,389.833 313.5,404.5C 311.833,404.5 310.167,404.5 308.5,404.5C 309.997,398.504 312.33,392.837 315.5,387.5C 313.689,382.728 311.689,378.061 309.5,373.5C 309.821,371.952 310.821,371.285 312.5,371.5 Z"/></g>
<g><path style="opacity:1" fill="#a19fa0" d="M 344.5,404.5 C 344.5,404.167 344.5,403.833 344.5,403.5C 344.5,392.833 344.5,382.167 344.5,371.5C 343.5,371.5 342.5,371.5 341.5,371.5C 340.505,382.321 340.172,393.321 340.5,404.5C 339.505,393.346 339.172,382.012 339.5,370.5C 341.5,370.5 343.5,370.5 345.5,370.5C 345.828,382.012 345.495,393.346 344.5,404.5 Z"/></g>
<g><path style="opacity:1" fill="#424141" d="M 341.5,371.5 C 341.5,382.167 341.5,392.833 341.5,403.5C 342.5,403.5 343.5,403.5 344.5,403.5C 344.5,403.833 344.5,404.167 344.5,404.5C 343.167,404.5 341.833,404.5 340.5,404.5C 340.172,393.321 340.505,382.321 341.5,371.5 Z"/></g>
<g><path style="opacity:1" fill="#9d9b9c" d="M 331.5,371.5 C 332.919,370.549 334.585,370.216 336.5,370.5C 336.5,381.833 336.5,393.167 336.5,404.5C 334.585,404.784 332.919,404.451 331.5,403.5C 332.833,403.5 334.167,403.5 335.5,403.5C 335.5,392.833 335.5,382.167 335.5,371.5C 334.167,371.5 332.833,371.5 331.5,371.5 Z"/></g>
<g><path style="opacity:1" fill="#111010" d="M 331.5,371.5 C 332.833,371.5 334.167,371.5 335.5,371.5C 335.5,382.167 335.5,392.833 335.5,403.5C 334.167,403.5 332.833,403.5 331.5,403.5C 331.5,392.833 331.5,382.167 331.5,371.5 Z"/></g>
<g><path style="opacity:1" fill="#070606" d="M 341.5,371.5 C 342.5,371.5 343.5,371.5 344.5,371.5C 344.5,382.167 344.5,392.833 344.5,403.5C 343.5,403.5 342.5,403.5 341.5,403.5C 341.5,392.833 341.5,382.167 341.5,371.5 Z"/></g>
<g><path style="opacity:1" fill="#2f2f2f" d="M 322.5,382.5 C 322.668,377.468 321.668,377.301 319.5,382C 318.563,382.692 317.897,382.525 317.5,381.5C 319.545,378.421 321.378,375.088 323,371.5C 324.814,370.24 326.647,370.24 328.5,371.5C 326.74,375.357 324.74,379.024 322.5,382.5 Z"/></g>
<g><path style="opacity:1" fill="#787576" d="M 312.5,371.5 C 310.821,371.285 309.821,371.952 309.5,373.5C 308.522,373.189 307.855,372.522 307.5,371.5C 309.299,370.212 310.965,370.212 312.5,371.5 Z"/></g>
<g><path style="opacity:1" fill="#837e7d" d="M 160.5,662.5 C 168.422,672.934 176.589,683.267 185,693.5C 195.082,702.756 205.582,711.423 216.5,719.5C 211.821,719.334 207.155,719.501 202.5,720C 196.762,721.054 191.429,722.887 186.5,725.5C 188.294,716.258 188.794,706.925 188,697.5C 186.065,695.898 183.899,694.731 181.5,694C 173.43,693.314 165.43,693.814 157.5,695.5C 156.833,695.167 156.167,694.833 155.5,694.5C 157.557,689.172 159.724,683.838 162,678.5C 162.438,673.058 161.938,667.725 160.5,662.5 Z"/></g>
<g><path style="opacity:1" fill="#181818" d="M 410.5,715.5 C 410.277,711.838 409.277,708.505 407.5,705.5C 405.048,699.357 403.381,693.023 402.5,686.5C 403.978,686.238 405.311,686.571 406.5,687.5C 414.14,694.473 421.473,701.806 428.5,709.5C 427.652,711.283 426.319,711.783 424.5,711C 419.114,706.737 414.281,701.903 410,696.5C 411.499,703.152 413.332,709.819 415.5,716.5C 415.281,718.915 413.948,719.915 411.5,719.5C 411.768,717.901 411.434,716.568 410.5,715.5 Z"/></g>
<g><path style="opacity:1" fill="#1b1a1a" d="M 237.5,679.5 C 239.09,679.628 240.423,680.295 241.5,681.5C 235.83,690.843 230.163,700.176 224.5,709.5C 223.167,708.833 222.167,707.833 221.5,706.5C 226.861,697.483 232.194,688.483 237.5,679.5 Z"/></g>
<g><path style="opacity:1" fill="#191818" d="M 256.5,708.5 C 255.076,710.515 254.41,712.848 254.5,715.5C 253.178,718.739 251.844,722.072 250.5,725.5C 249.054,724.829 248.388,723.662 248.5,722C 250.04,715.41 251.54,708.91 253,702.5C 248.5,707 244,711.5 239.5,716C 237.681,716.783 236.348,716.283 235.5,714.5C 242.862,706.305 250.695,698.638 259,691.5C 260.28,691.613 261.113,692.28 261.5,693.5C 260.027,698.586 258.36,703.586 256.5,708.5 Z"/></g>
<g><path style="opacity:1" fill="#837d7d" d="M 470.5,696.5 C 476.176,696.334 481.843,696.501 487.5,697C 492.123,698.166 496.79,699.333 501.5,700.5C 505.68,709.536 509.18,718.869 512,728.5C 512.796,732.755 512.629,736.921 511.5,741C 502.392,741.391 493.725,739.557 485.5,735.5C 481.122,732.311 476.455,729.645 471.5,727.5C 470.076,721.42 469.076,715.253 468.5,709C 468.329,704.645 468.996,700.478 470.5,696.5 Z"/></g>
<g><path style="opacity:1" fill="#847d7d" d="M 169.5,696.5 C 173.514,696.334 177.514,696.501 181.5,697C 182.155,698.487 183.155,699.653 184.5,700.5C 185.396,709.669 184.396,718.669 181.5,727.5C 174.394,732.386 166.727,736.22 158.5,739C 153.822,739.769 149.155,740.602 144.5,741.5C 141.101,740.76 139.768,738.594 140.5,735C 140.837,731.477 141.337,727.977 142,724.5C 145.333,717.167 148.667,709.833 152,702.5C 152.903,701.299 154.069,700.465 155.5,700C 160.341,699.005 165.008,697.838 169.5,696.5 Z"/></g>
<g><path style="opacity:1" fill="#1a1919" d="M 245.5,684.5 C 247.103,684.312 248.437,684.812 249.5,686C 243.79,694.584 238.456,703.418 233.5,712.5C 230.41,713.914 229.243,712.914 230,709.5C 235.178,701.139 240.344,692.805 245.5,684.5 Z"/></g>
<g><path style="opacity:1" fill="#837e7d" d="M 546.5,705.5 C 542.522,710.994 538.689,716.661 535,722.5C 530.526,726.794 526.526,731.461 523,736.5C 521.871,738.141 520.371,739.141 518.5,739.5C 517.748,736.253 517.248,732.919 517,729.5C 513.428,720.027 509.595,710.694 505.5,701.5C 513.878,703.142 522.212,704.976 530.5,707C 536.08,707.996 541.413,707.496 546.5,705.5 Z"/></g>
<g><path style="opacity:1" fill="#191919" d="M 340.5,734.5 C 340.5,735.833 340.5,737.167 340.5,738.5C 339.5,738.5 338.5,738.5 337.5,738.5C 335.225,731.739 333.392,724.739 332,717.5C 330.05,723.426 328.55,729.426 327.5,735.5C 326.596,736.209 326.263,737.209 326.5,738.5C 324.517,738.843 323.183,738.176 322.5,736.5C 322.366,734.708 322.699,733.042 323.5,731.5C 325.279,727.406 326.612,723.073 327.5,718.5C 328.486,714.557 329.152,710.557 329.5,706.5C 331.167,706.5 332.833,706.5 334.5,706.5C 336.498,715.825 338.498,725.158 340.5,734.5 Z"/></g>
<g><path style="opacity:1" fill="#847e7e" d="M 491.5,664.5 C 490.272,669.481 490.272,674.481 491.5,679.5C 493.062,684.555 494.728,689.555 496.5,694.5C 487.568,692.957 478.568,692.457 469.5,693C 468.378,695.124 466.878,696.957 465,698.5C 463.402,706.381 463.902,714.215 466.5,722C 466.167,723.167 465.833,724.333 465.5,725.5C 457.829,721.332 449.662,718.665 441,717.5C 439.67,718.582 438.17,719.249 436.5,719.5C 446.39,712.456 455.89,704.789 465,696.5C 474.422,686.251 483.256,675.585 491.5,664.5 Z"/></g>
<g><path style="opacity:1" fill="#898888" d="M 407.5,705.5 C 409.277,708.505 410.277,711.838 410.5,715.5C 408.723,712.495 407.723,709.162 407.5,705.5 Z"/></g>
<g><path style="opacity:1" fill="#837e7e" d="M 136.5,741.5 C 125.102,730.728 115.102,718.728 106.5,705.5C 112.659,707.478 118.993,707.978 125.5,707C 132.537,704.348 139.87,702.848 147.5,702.5C 144.852,709.161 142.018,715.828 139,722.5C 136.999,728.678 136.166,735.012 136.5,741.5 Z"/></g>
<g><path style="opacity:1" fill="#7e7c7d" d="M 256.5,708.5 C 256.59,711.152 255.924,713.485 254.5,715.5C 254.41,712.848 255.076,710.515 256.5,708.5 Z"/></g>
<g><path style="opacity:1" fill="#8c8c8c" d="M 327.5,718.5 C 326.612,723.073 325.279,727.406 323.5,731.5C 324.013,727.447 324.846,723.447 326,719.5C 326.383,718.944 326.883,718.611 327.5,718.5 Z"/></g>
<g><path style="opacity:1" fill="#837d7d" d="M 439.5,723.5 C 442.85,723.335 446.183,723.502 449.5,724C 456.116,726.813 462.783,729.313 469.5,731.5C 470.393,739.57 471.893,747.57 474,755.5C 474.83,761.196 474.663,766.863 473.5,772.5C 470.562,773.575 467.562,773.741 464.5,773C 460.142,771.159 456.142,768.825 452.5,766C 446.709,761.878 441.209,757.378 436,752.5C 434.655,742.413 435.822,732.747 439.5,723.5 Z"/></g>
<g><path style="opacity:1" fill="#847d7d" d="M 207.5,722.5 C 210.574,722.873 213.574,723.539 216.5,724.5C 217.691,734.527 217.691,744.527 216.5,754.5C 208.266,760.888 199.599,766.721 190.5,772C 187.232,773.213 183.899,773.546 180.5,773C 178.543,768.024 178.043,762.857 179,757.5C 180.571,748.743 182.571,740.077 185,731.5C 192.019,727.049 199.519,724.049 207.5,722.5 Z"/></g>
<g><path style="opacity:1" fill="#827d7d" d="M 216.5,719.5 C 227.976,726.338 239.642,732.672 251.5,738.5C 245.951,738.087 240.618,738.92 235.5,741C 231.322,743.999 226.989,746.833 222.5,749.5C 221.669,743.193 221.169,736.859 221,730.5C 220.156,726.445 218.656,722.778 216.5,719.5 Z"/></g>
<g><path style="opacity:1" fill="#837f7e" d="M 436.5,719.5 C 435.52,722.116 434.02,724.449 432,726.5C 430.964,733.799 430.464,741.132 430.5,748.5C 424.98,746.149 419.647,743.316 414.5,740C 410.958,737.971 407.291,737.138 403.5,737.5C 414.625,731.77 425.625,725.77 436.5,719.5 Z"/></g>
<g><path style="opacity:1" fill="#adabab" d="M 314.5,705.5 C 316.5,705.5 318.5,705.5 320.5,705.5C 320.5,716.833 320.5,728.167 320.5,739.5C 318.5,739.5 316.5,739.5 314.5,739.5C 314.5,728.167 314.5,716.833 314.5,705.5 Z"/></g>
<g><path style="opacity:1" fill="#0e0d0d" d="M 315.5,706.5 C 316.833,706.5 318.167,706.5 319.5,706.5C 319.5,717.167 319.5,727.833 319.5,738.5C 318.167,738.5 316.833,738.5 315.5,738.5C 315.5,727.833 315.5,717.167 315.5,706.5 Z"/></g>
<g><path style="opacity:1" fill="#989596" d="M 327.5,735.5 C 327.5,736.833 327.5,738.167 327.5,739.5C 325.5,739.5 323.5,739.5 321.5,739.5C 321.263,738.209 321.596,737.209 322.5,736.5C 323.183,738.176 324.517,738.843 326.5,738.5C 326.263,737.209 326.596,736.209 327.5,735.5 Z"/></g>
<g><path style="opacity:1" fill="#626061" d="M 340.5,734.5 C 341.451,735.919 341.784,737.585 341.5,739.5C 339.901,739.768 338.568,739.434 337.5,738.5C 338.5,738.5 339.5,738.5 340.5,738.5C 340.5,737.167 340.5,735.833 340.5,734.5 Z"/></g>
<g><path style="opacity:1" fill="#847e7e" d="M 512.5,745.5 C 502.055,757.271 490.055,767.271 476.5,775.5C 477.456,770.908 478.122,766.241 478.5,761.5C 477.307,752.801 475.973,744.134 474.5,735.5C 479.265,737.475 484.265,738.975 489.5,740C 496.406,744.931 504.073,746.765 512.5,745.5 Z"/></g>
<g><path style="opacity:1" fill="#837d7d" d="M 242.5,742.5 C 248.014,741.486 251.847,743.486 254,748.5C 255.869,754.914 257.369,761.414 258.5,768C 258.397,769.561 258.063,771.061 257.5,772.5C 253.097,775.734 249.597,779.734 247,784.5C 242.584,786.912 238.751,790.078 235.5,794C 227.225,799.78 222.725,797.613 222,787.5C 221.5,776.505 221.333,765.505 221.5,754.5C 226.101,753.086 230.101,750.586 233.5,747C 236.592,745.454 239.592,743.954 242.5,742.5 Z"/></g>
<g><path style="opacity:1" fill="#837d7d" d="M 404.5,742.5 C 412.935,742.523 419.935,745.69 425.5,752C 427.42,753.122 429.42,753.956 431.5,754.5C 432.098,768.284 431.265,781.951 429,795.5C 428.044,796.894 426.711,797.561 425,797.5C 422.217,796.191 419.383,795.024 416.5,794C 410.699,787.198 404.532,780.698 398,774.5C 397.033,772.37 395.866,770.37 394.5,768.5C 395.96,759.836 398.293,751.503 401.5,743.5C 402.791,743.737 403.791,743.404 404.5,742.5 Z"/></g>
<g><path style="opacity:1" fill="#847f7f" d="M 176.5,775.5 C 162.649,766.982 150.315,756.649 139.5,744.5C 147.297,745.46 154.964,744.626 162.5,742C 167.471,738.897 172.804,736.397 178.5,734.5C 178.833,735 179.167,735.5 179.5,736C 177.191,745.567 175.524,755.234 174.5,765C 174.247,768.797 174.914,772.297 176.5,775.5 Z"/></g>
<g><path style="opacity:1" fill="#827e7d" d="M 251.5,738.5 C 264.781,742.648 278.114,746.481 291.5,750C 313.837,753.291 336.17,753.291 358.5,750C 373.009,746.74 387.343,742.907 401.5,738.5C 395.282,746.329 391.949,755.329 391.5,765.5C 390.448,765.649 389.448,765.483 388.5,765C 383.14,757.818 376.307,752.652 368,749.5C 363.902,749.966 360.402,751.633 357.5,754.5C 355.336,759.495 353.17,764.495 351,769.5C 350.221,770.728 349.221,771.728 348,772.5C 343.905,767.729 339.738,762.895 335.5,758C 333.697,757.363 332.364,756.197 331.5,754.5C 330.167,754.167 328.833,753.833 327.5,753.5C 323.587,754.79 319.92,756.623 316.5,759C 313.287,764.817 309.62,770.317 305.5,775.5C 301.971,770.429 299.471,764.763 298,758.5C 292.669,750.021 285.669,748.355 277,753.5C 271.456,756.535 266.623,760.535 262.5,765.5C 260.618,757.307 258.118,749.307 255,741.5C 253.855,740.364 252.688,739.364 251.5,738.5 Z"/></g>
<g><path style="opacity:1" fill="#847d7d" d="M 282.5,754.5 C 286.756,754.044 290.256,755.377 293,758.5C 296.515,765.209 299.348,772.209 301.5,779.5C 300.336,783.351 298.669,787.017 296.5,790.5C 291.594,796.641 286.927,802.974 282.5,809.5C 277.017,814.088 272.85,813.088 270,806.5C 267.186,794.281 265.019,781.947 263.5,769.5C 264.552,769.649 265.552,769.483 266.5,769C 270.775,762.886 276.109,758.053 282.5,754.5 Z"/></g>
<g><path style="opacity:1" fill="#847d7d" d="M 323.5,758.5 C 326.271,758.421 328.937,758.921 331.5,760C 334.667,763.167 337.833,766.333 341,769.5C 342.637,773.292 344.47,776.959 346.5,780.5C 343.62,789.311 340.453,797.978 337,806.5C 334.308,809.692 331.808,813.025 329.5,816.5C 326.718,817.952 324.218,817.619 322,815.5C 315.839,804.353 310.672,792.853 306.5,781C 309.578,775.738 312.911,770.571 316.5,765.5C 318.881,763.119 321.215,760.785 323.5,758.5 Z"/></g>
<g><path style="opacity:1" fill="#837d7d" d="M 365.5,754.5 C 368.625,754.865 371.625,755.698 374.5,757C 380,761.167 384.833,766 389,771.5C 389.103,785.322 386.269,798.489 380.5,811C 378.098,811.814 375.765,811.647 373.5,810.5C 371.5,808.833 369.5,807.167 367.5,805.5C 362.805,796.98 357.638,788.646 352,780.5C 351.333,778.833 351.333,777.167 352,775.5C 355.066,767.316 359.566,760.316 365.5,754.5 Z"/></g>
<g><path style="opacity:1" fill="#847f7e" d="M 473.5,777.5 C 460.406,786.716 446.406,794.382 431.5,800.5C 436.116,787.975 437.783,774.975 436.5,761.5C 437.873,761.343 439.207,761.51 440.5,762C 446.833,766.333 453.167,770.667 459.5,775C 463.965,776.926 468.632,777.76 473.5,777.5 Z"/></g>
<g><path style="opacity:1" fill="#837e7d" d="M 221.5,799.5 C 205.802,794.155 191.469,786.488 178.5,776.5C 182.446,777.527 186.446,777.694 190.5,777C 199.599,771.721 208.266,765.888 216.5,759.5C 217.332,768.482 217.832,777.482 218,786.5C 218.402,791.115 219.569,795.448 221.5,799.5 Z"/></g>
<g><path style="opacity:1" fill="#847f7e" d="M 322.5,821.5 C 287.284,821.557 253.618,814.557 221.5,800.5C 223.401,800.433 225.234,800.767 227,801.5C 229.135,800.873 231.302,800.373 233.5,800C 242.293,794.706 249.626,787.873 255.5,779.5C 257.045,778.548 258.712,778.215 260.5,778.5C 261.451,787.984 263.285,797.317 266,806.5C 268.322,814.379 273.489,817.212 281.5,815C 288.361,810.457 293.194,804.29 296,796.5C 299.934,794.294 302.101,790.961 302.5,786.5C 303.5,786.5 304.5,786.5 305.5,786.5C 306.096,791.014 307.263,795.348 309,799.5C 312.743,804.646 315.743,810.313 318,816.5C 319.707,818.037 321.207,819.704 322.5,821.5 Z"/></g>
<g><path style="opacity:1" fill="#837d7d" d="M 376.5,816.5 C 370.808,818.583 364.808,819.75 358.5,820C 348.855,820.957 339.188,821.457 329.5,821.5C 338.633,813.469 344.3,803.302 346.5,791C 347.5,789.5 348.5,788 349.5,786.5C 355.82,794.998 361.987,803.665 368,812.5C 370.529,814.54 373.362,815.874 376.5,816.5 Z"/></g>
<g><path style="opacity:1" fill="#837e7d" d="M 429.5,800.5 C 414.792,807.069 399.459,812.069 383.5,815.5C 383.954,812.86 385.121,810.527 387,808.5C 390.091,798.264 392.424,787.931 394,777.5C 395.011,778.337 396.178,778.67 397.5,778.5C 402.849,785.686 409.183,792.186 416.5,798C 419.172,799.557 422.005,800.724 425,801.5C 425.945,801.095 426.612,800.428 427,799.5C 427.671,800.252 428.504,800.586 429.5,800.5 Z"/></g>
</svg>
